<svg width="411" height="339" viewBox="0 0 411 339" fill="none" xmlns="http://www.w3.org/2000/svg">
<g filter="url(#filter0_g_519_1007)">
<circle cx="219.194" cy="169.5" r="161" fill="#E9ECF0"/>
</g>
<path d="M319.535 38.2584C312.188 36.9156 305.142 41.7836 303.8 49.1311L292.342 111.825L318.95 116.688L330.408 53.9939C331.751 46.6464 326.883 39.6012 319.535 38.2584Z" fill="url(#paint0_linear_519_1007)" stroke="url(#paint1_linear_519_1007)" stroke-width="0.176456"/>
<path d="M343.004 22.4928C335.656 21.15 328.611 26.018 327.268 33.3654L315.811 96.0595L342.419 100.922L353.876 38.2282C355.219 30.8808 350.351 23.8356 343.004 22.4928Z" fill="url(#paint2_linear_519_1007)" stroke="url(#paint3_linear_519_1007)" stroke-width="0.176456"/>
<path d="M365.962 19.1686C358.614 17.8258 351.569 22.6938 350.226 30.0412L338.769 92.7353L365.377 97.5981L376.835 34.904C378.177 27.5566 373.309 20.5114 365.962 19.1686Z" fill="url(#paint4_linear_519_1007)" stroke="url(#paint5_linear_519_1007)" stroke-width="0.176456"/>
<path d="M396.499 53.664C397.851 46.2686 392.951 39.1778 385.556 37.8262V37.8262C378.16 36.4747 371.07 41.3742 369.718 48.7696L358.244 111.55L385.025 116.445L396.499 53.664Z" fill="url(#paint6_linear_519_1007)"/>
<path d="M347.248 70.1514C321.823 65.5048 297.445 82.3493 292.798 107.774C288.152 133.199 304.996 157.577 330.421 162.224C355.846 166.871 380.224 150.026 384.871 124.601C389.518 99.1762 372.673 74.798 347.248 70.1514Z" fill="#006FB3" stroke="url(#paint7_linear_519_1007)" stroke-width="0.176456"/>
<path d="M398.52 106.115C390.372 123.51 365.235 156.622 329.881 149.914" stroke="url(#paint8_linear_519_1007)" stroke-width="23.1914" stroke-linecap="round"/>
<path d="M311.707 47.9417C314.62 41.011 311.363 33.0314 304.432 30.1187V30.1187C297.501 27.206 289.521 30.4632 286.609 37.3939L261.882 96.2301L286.981 106.778L311.707 47.9417Z" fill="url(#paint9_radial_519_1007)"/>
<path d="M311.707 47.9417C314.62 41.011 311.363 33.0314 304.432 30.1187V30.1187C297.501 27.206 289.521 30.4632 286.609 37.3939L261.882 96.2301L286.981 106.778L311.707 47.9417Z" fill="url(#paint10_linear_519_1007)"/>
<path d="M338.021 37.5999C340.934 30.6692 337.676 22.6896 330.746 19.7769V19.7769C323.815 16.8642 315.835 20.1214 312.923 27.0521L288.196 85.8883L313.295 96.4361L338.021 37.5999Z" fill="url(#paint11_radial_519_1007)"/>
<path d="M338.021 37.5999C340.934 30.6692 337.676 22.6896 330.746 19.7769V19.7769C323.815 16.8642 315.835 20.1214 312.923 27.0521L288.196 85.8883L313.295 96.4361L338.021 37.5999Z" fill="url(#paint12_linear_519_1007)"/>
<path d="M361.156 39.2992C364.068 32.3684 360.811 24.3888 353.881 21.4761V21.4761C346.95 18.5634 338.97 21.8206 336.057 28.7514L311.331 87.5875L336.429 98.1353L361.156 39.2992Z" fill="url(#paint13_radial_519_1007)"/>
<path d="M361.156 39.2992C364.068 32.3684 360.811 24.3888 353.881 21.4761V21.4761C346.95 18.5634 338.97 21.8206 336.057 28.7514L311.331 87.5875L336.429 98.1353L361.156 39.2992Z" fill="url(#paint14_linear_519_1007)"/>
<path d="M353.685 21.9407C347.011 19.1358 339.327 22.2726 336.522 28.9466L317.07 75.2332C314.265 81.9072 317.402 89.5916 324.076 92.3964C330.75 95.2012 338.434 92.0645 341.239 85.3905L360.691 39.1039C363.496 32.4299 360.359 24.7455 353.685 21.9407Z" stroke="url(#paint15_linear_519_1007)" stroke-width="1.00832"/>
<path d="M376.237 61.8206C379.15 54.8899 375.892 46.9103 368.962 43.9976V43.9976C362.031 41.0849 354.051 44.3421 351.139 51.2728L326.412 110.109L351.51 120.657L376.237 61.8206Z" fill="url(#paint16_radial_519_1007)"/>
<path d="M376.237 61.8206C379.15 54.8899 375.892 46.9103 368.962 43.9976V43.9976C362.031 41.0849 354.051 44.3421 351.139 51.2728L326.412 110.109L351.51 120.657L376.237 61.8206Z" fill="url(#paint17_linear_519_1007)"/>
<rect x="-0.660113" y="0.269454" width="26.2163" height="76.4248" rx="13.1082" transform="matrix(-0.921897 -0.387436 -0.387436 0.921897 380.346 49.0368)" stroke="url(#paint18_linear_519_1007)" stroke-width="1.00832"/>
<ellipse cx="46.8868" cy="46.8868" rx="46.8868" ry="46.8868" transform="matrix(-0.921897 -0.387436 -0.387436 0.921897 367.849 85.3984)" fill="#4DC4EC"/>
<path d="M366.913 113.476C355.209 128.707 323.531 155.628 290.451 141.463" stroke="url(#paint19_linear_519_1007)" stroke-width="23.1914" stroke-linecap="round"/>
<g style="mix-blend-mode:multiply" opacity="0.78">
<circle cx="299.078" cy="112.09" r="37.8396" transform="rotate(35.6684 299.078 112.09)" fill="url(#paint20_radial_519_1007)"/>
</g>
<g style="mix-blend-mode:multiply" opacity="0.78">
<circle cx="280.989" cy="107.543" r="14.3122" transform="rotate(35.6684 280.989 107.543)" fill="url(#paint21_radial_519_1007)" fill-opacity="0.5"/>
</g>
<g style="mix-blend-mode:multiply" opacity="0.78">
<circle cx="314.216" cy="118.432" r="14.3122" transform="rotate(35.6684 314.216 118.432)" fill="url(#paint22_radial_519_1007)" fill-opacity="0.5"/>
</g>
<path d="M293.857 124.225C299.036 125.857 304.319 123.735 305.658 119.486L286.905 113.576C285.566 117.825 288.679 122.593 293.857 124.225Z" fill="#006FB3"/>
<path d="M287.97 97.8349C289.055 97.5011 291.7 97.1671 293.603 98.5016" stroke="#006FB3" stroke-width="3.02496" stroke-linecap="round"/>
<path d="M310.242 104.001C308.589 102.417 307.356 101.849 305.054 101.708" stroke="#006FB3" stroke-width="3.02496" stroke-linecap="round"/>
<path d="M285.708 102.504L290.979 106.927L284.395 108.925" stroke="#006FB3" stroke-width="3.02496" stroke-linecap="round" stroke-linejoin="round"/>
<path d="M308.091 115.943L303.579 110.749L310.395 109.808" stroke="#006FB3" stroke-width="3.02496" stroke-linecap="round" stroke-linejoin="round"/>
<path d="M294.083 117.636C294.454 118 295.461 118.693 296.516 118.551" stroke="white" stroke-width="3.02496" stroke-linecap="round"/>
<path d="M159.896 263.437C149.439 270.703 135.073 268.117 127.806 257.661V257.661C120.54 247.205 123.126 232.838 133.583 225.572L179.211 193.864L205.524 231.73L159.896 263.437Z" fill="url(#paint23_linear_519_1007)"/>
<path d="M74.5931 132.264C60.7661 130.257 51.216 117.205 53.2239 103.378V103.378C55.2317 89.5509 68.0996 79.7546 81.9266 81.7625L175.597 95.3645L168.263 145.866L74.5931 132.264Z" fill="url(#paint24_linear_519_1007)"/>
<path d="M36.2466 212.843C25.7904 220.11 11.4236 217.524 4.15744 207.067V207.067C-3.10871 196.611 -0.522645 182.244 9.93358 174.978L106.153 108.114L132.467 145.979L36.2466 212.843Z" fill="url(#paint25_linear_519_1007)"/>
<path d="M86.1558 231.086C75.6996 238.352 61.3328 235.766 54.0666 225.31V225.31C46.8005 214.853 49.3865 200.486 59.8428 193.22L95.2572 168.61L121.57 206.476L86.1558 231.086Z" fill="url(#paint26_linear_519_1007)"/>
<path d="M118.855 257.648C108.398 264.914 94.0315 262.328 86.7653 251.872V251.872C79.4992 241.416 82.0853 227.049 92.5415 219.783L122.181 199.186L148.494 237.051L118.855 257.648Z" fill="url(#paint27_linear_519_1007)"/>
<ellipse cx="154.611" cy="170.911" rx="79.5244" ry="79.7586" transform="rotate(-124.796 154.611 170.911)" fill="url(#paint28_linear_519_1007)"/>
<g style="mix-blend-mode:multiply" opacity="0.78">
<ellipse cx="72.326" cy="76.1988" rx="72.326" ry="76.1988" transform="matrix(-0.482936 0.875656 0.875656 0.482936 121.752 65.8145)" fill="url(#paint29_radial_519_1007)"/>
</g>
<g style="mix-blend-mode:multiply" opacity="0.78">
<ellipse cx="22.8593" cy="22.4301" rx="22.8593" ry="22.4301" transform="matrix(-0.482936 0.875656 0.875656 0.482936 152.706 125.533)" fill="url(#paint30_radial_519_1007)"/>
</g>
<g style="mix-blend-mode:multiply" opacity="0.9">
<ellipse cx="20.4659" cy="20.0816" rx="20.4659" ry="20.0816" transform="matrix(-0.482936 0.875656 0.875656 0.482936 205.687 110.205)" fill="url(#paint31_radial_519_1007)"/>
</g>
<ellipse cx="4.3369" cy="4.69831" rx="4.3369" ry="4.69831" transform="matrix(-0.980959 0.194213 0.194213 0.980959 201.906 129.412)" fill="#766414"/>
<ellipse cx="4.3369" cy="4.69831" rx="4.3369" ry="4.69831" transform="matrix(-0.969652 -0.244491 -0.244491 0.969652 177.097 140.648)" fill="#766414"/>
<path d="M87.4156 214.822C62.5814 179.085 71.5039 129.919 107.351 105.008C143.198 80.0982 192.389 88.8802 217.223 124.617C242.057 160.355 233.135 209.521 197.288 234.431C161.441 259.341 112.25 250.559 87.4156 214.822Z" stroke="url(#paint32_linear_519_1007)" stroke-width="1.44563"/>
<path d="M198.766 146.13C197.031 150.078 191.626 156.41 183.888 150.16" stroke="#766414" stroke-width="4.3369" stroke-linecap="round"/>
<path d="M164.464 133.647C165.798 131.624 168.542 129.097 170.549 128.251" stroke="#766414" stroke-opacity="0.5" stroke-width="4.3369" stroke-linecap="round"/>
<path d="M198.07 120.661C195.718 120.077 192.18 120.733 189.939 120.817" stroke="#766414" stroke-opacity="0.5" stroke-width="4.3369" stroke-linecap="round"/>
<g filter="url(#filter1_g_519_1007)">
<circle cx="169.992" cy="143.62" r="1.08422" transform="rotate(-6.32854 169.992 143.62)" fill="white"/>
</g>
<g filter="url(#filter2_g_519_1007)">
<circle cx="196.655" cy="134.845" r="1.08422" transform="rotate(-6.32854 196.655 134.845)" fill="white"/>
</g>
<mask id="mask0_519_1007" style="mask-type:alpha" maskUnits="userSpaceOnUse" x="58" y="10" width="323" height="322">
<circle cx="219.194" cy="171" r="161" fill="#E9ECF0"/>
</mask>
<g mask="url(#mask0_519_1007)">
<path d="M77.6113 216.603C77.6113 211.086 82.0841 206.613 87.6015 206.613H351.308C356.825 206.613 361.298 211.086 361.298 216.603V343.72C361.298 349.237 356.825 353.71 351.308 353.71H87.6015C82.0841 353.71 77.6113 349.237 77.6113 343.72V216.603Z" fill="white"/>
<path d="M164.293 171.951C164.293 166.434 168.766 161.961 174.284 161.961H261.999C267.517 161.961 271.989 166.434 271.989 171.951V241.279C271.989 246.797 267.517 251.27 261.999 251.27H174.284C168.766 251.27 164.293 246.797 164.293 241.28V171.951Z" fill="white"/>
<g filter="url(#filter3_i_519_1007)">
<path d="M98.626 262.038C98.626 264.797 100.862 267.033 103.621 267.033H146.165C148.924 267.033 151.161 264.797 151.161 262.038V240.508C151.161 237.749 148.924 235.512 146.165 235.512H103.621C100.862 235.512 98.626 237.749 98.626 240.508V262.038Z" fill="#B9E3F9"/>
</g>
<g filter="url(#filter4_i_519_1007)">
<path d="M98.626 306.69C98.626 309.449 100.862 311.686 103.621 311.686H146.165C148.924 311.686 151.161 309.449 151.161 306.69V285.16C151.161 282.401 148.924 280.165 146.165 280.165H103.621C100.862 280.165 98.626 282.401 98.626 285.16V306.69Z" fill="#B9E3F9"/>
</g>
<g filter="url(#filter5_i_519_1007)">
<path d="M224.712 262.038C224.712 264.797 226.949 267.033 229.707 267.033H272.252C275.011 267.033 277.247 264.797 277.247 262.038V240.508C277.247 237.749 275.011 235.512 272.252 235.512H229.707C226.949 235.512 224.712 237.749 224.712 240.508V262.038Z" fill="#B9E3F9"/>
</g>
<g filter="url(#filter6_i_519_1007)">
<path d="M161.669 262.038C161.669 264.797 163.905 267.033 166.664 267.033H209.208C211.967 267.033 214.203 264.797 214.203 262.038V240.508C214.203 237.749 211.967 235.512 209.208 235.512H166.664C163.905 235.512 161.669 237.749 161.669 240.508V262.038Z" fill="#B9E3F9"/>
</g>
<g filter="url(#filter7_i_519_1007)">
<path d="M287.746 262.038C287.746 264.797 289.982 267.033 292.741 267.033H335.286C338.044 267.033 340.281 264.797 340.281 262.038V240.508C340.281 237.749 338.044 235.512 335.286 235.512H292.741C289.982 235.512 287.746 237.749 287.746 240.508V262.038Z" fill="#B9E3F9"/>
</g>
<g filter="url(#filter8_i_519_1007)">
<path d="M287.746 306.69C287.746 309.449 289.982 311.686 292.741 311.686H335.286C338.044 311.686 340.281 309.449 340.281 306.69V285.16C340.281 282.401 338.044 280.165 335.286 280.165H292.741C289.982 280.165 287.746 282.401 287.746 285.16V306.69Z" fill="#B9E3F9"/>
</g>
<path d="M67.104 346.35C67.104 351.867 71.5767 356.34 77.0941 356.34H151.676C157.193 356.34 161.666 351.867 161.666 346.35V332.183C161.666 326.665 157.193 322.192 151.676 322.192H77.0941C71.5767 322.192 67.104 326.665 67.104 332.183V346.35Z" fill="#4A8A73"/>
<path d="M277.239 346.35C277.239 351.867 281.712 356.34 287.229 356.34H361.811C367.328 356.34 371.801 351.867 371.801 346.35V332.183C371.801 326.665 367.328 322.192 361.811 322.192H287.229C281.712 322.192 277.239 326.665 277.239 332.183V346.35Z" fill="#4A8A73"/>
<path d="M180.049 288.043H258.851V353.711H180.049V288.043Z" fill="#D9D9D9"/>
<path d="M164.293 282.793H274.616V298.553H164.293V282.793Z" fill="#BBBBBB"/>
<path d="M195.815 193.224C195.815 190.465 198.051 188.229 200.81 188.229H232.847C235.606 188.229 237.843 190.465 237.843 193.224V198.994C237.843 201.753 235.606 203.989 232.847 203.989H200.81C198.051 203.989 195.815 201.753 195.815 198.994V193.224Z" fill="#00C89A"/>
<path d="M219.717 175.098C222.476 175.098 224.712 177.334 224.712 180.093L224.712 212.13C224.712 214.889 222.476 217.125 219.717 217.125L213.947 217.125C211.188 217.125 208.952 214.889 208.952 212.13L208.952 180.093C208.952 177.334 211.188 175.098 213.947 175.098L219.717 175.098Z" fill="#00C89A"/>
<path d="M222.01 302.49V341.892H219.512V302.49H222.01Z" fill="#BBBBBB"/>
</g>
<defs>
<filter id="filter0_g_519_1007" x="50.1943" y="0.5" width="338" height="338" filterUnits="userSpaceOnUse" color-interpolation-filters="sRGB">
<feFlood flood-opacity="0" result="BackgroundImageFix"/>
<feBlend mode="normal" in="SourceGraphic" in2="BackgroundImageFix" result="shape"/>
<feTurbulence type="fractalNoise" baseFrequency="1 1" numOctaves="3" seed="6492" />
<feDisplacementMap in="shape" scale="16" xChannelSelector="R" yChannelSelector="G" result="displacedImage" width="100%" height="100%" />
<feMerge result="effect1_texture_519_1007">
<feMergeNode in="displacedImage"/>
</feMerge>
</filter>
<filter id="filter1_g_519_1007" x="168.185" y="141.812" width="3.61409" height="3.61555" filterUnits="userSpaceOnUse" color-interpolation-filters="sRGB">
<feFlood flood-opacity="0" result="BackgroundImageFix"/>
<feBlend mode="normal" in="SourceGraphic" in2="BackgroundImageFix" result="shape"/>
<feTurbulence type="fractalNoise" baseFrequency="1.3834772109985352 1.3834772109985352" numOctaves="3" seed="9145" />
<feDisplacementMap in="shape" scale="1.4456328153610229" xChannelSelector="R" yChannelSelector="G" result="displacedImage" width="100%" height="100%" />
<feMerge result="effect1_texture_519_1007">
<feMergeNode in="displacedImage"/>
</feMerge>
</filter>
<filter id="filter2_g_519_1007" x="194.847" y="133.037" width="3.61409" height="3.61555" filterUnits="userSpaceOnUse" color-interpolation-filters="sRGB">
<feFlood flood-opacity="0" result="BackgroundImageFix"/>
<feBlend mode="normal" in="SourceGraphic" in2="BackgroundImageFix" result="shape"/>
<feTurbulence type="fractalNoise" baseFrequency="1.3834772109985352 1.3834772109985352" numOctaves="3" seed="9145" />
<feDisplacementMap in="shape" scale="1.4456328153610229" xChannelSelector="R" yChannelSelector="G" result="displacedImage" width="100%" height="100%" />
<feMerge result="effect1_texture_519_1007">
<feMergeNode in="displacedImage"/>
</feMerge>
</filter>
<filter id="filter3_i_519_1007" x="98.626" y="235.512" width="52.5347" height="41.5116" filterUnits="userSpaceOnUse" color-interpolation-filters="sRGB">
<feFlood flood-opacity="0" result="BackgroundImageFix"/>
<feBlend mode="normal" in="SourceGraphic" in2="BackgroundImageFix" result="shape"/>
<feColorMatrix in="SourceAlpha" type="matrix" values="0 0 0 0 0 0 0 0 0 0 0 0 0 0 0 0 0 0 127 0" result="hardAlpha"/>
<feOffset dy="9.99015"/>
<feGaussianBlur stdDeviation="4.99507"/>
<feComposite in2="hardAlpha" operator="arithmetic" k2="-1" k3="1"/>
<feColorMatrix type="matrix" values="0 0 0 0 0 0 0 0 0 0.695805 0 0 0 0 0.933012 0 0 0 0.25 0"/>
<feBlend mode="normal" in2="shape" result="effect1_innerShadow_519_1007"/>
</filter>
<filter id="filter4_i_519_1007" x="98.626" y="280.164" width="52.5347" height="41.5116" filterUnits="userSpaceOnUse" color-interpolation-filters="sRGB">
<feFlood flood-opacity="0" result="BackgroundImageFix"/>
<feBlend mode="normal" in="SourceGraphic" in2="BackgroundImageFix" result="shape"/>
<feColorMatrix in="SourceAlpha" type="matrix" values="0 0 0 0 0 0 0 0 0 0 0 0 0 0 0 0 0 0 127 0" result="hardAlpha"/>
<feOffset dy="9.99015"/>
<feGaussianBlur stdDeviation="4.99507"/>
<feComposite in2="hardAlpha" operator="arithmetic" k2="-1" k3="1"/>
<feColorMatrix type="matrix" values="0 0 0 0 0 0 0 0 0 0.695805 0 0 0 0 0.933012 0 0 0 0.25 0"/>
<feBlend mode="normal" in2="shape" result="effect1_innerShadow_519_1007"/>
</filter>
<filter id="filter5_i_519_1007" x="224.712" y="235.512" width="52.5347" height="41.5116" filterUnits="userSpaceOnUse" color-interpolation-filters="sRGB">
<feFlood flood-opacity="0" result="BackgroundImageFix"/>
<feBlend mode="normal" in="SourceGraphic" in2="BackgroundImageFix" result="shape"/>
<feColorMatrix in="SourceAlpha" type="matrix" values="0 0 0 0 0 0 0 0 0 0 0 0 0 0 0 0 0 0 127 0" result="hardAlpha"/>
<feOffset dy="9.99015"/>
<feGaussianBlur stdDeviation="4.99507"/>
<feComposite in2="hardAlpha" operator="arithmetic" k2="-1" k3="1"/>
<feColorMatrix type="matrix" values="0 0 0 0 0 0 0 0 0 0.695805 0 0 0 0 0.933012 0 0 0 0.25 0"/>
<feBlend mode="normal" in2="shape" result="effect1_innerShadow_519_1007"/>
</filter>
<filter id="filter6_i_519_1007" x="161.669" y="235.512" width="52.5347" height="41.5116" filterUnits="userSpaceOnUse" color-interpolation-filters="sRGB">
<feFlood flood-opacity="0" result="BackgroundImageFix"/>
<feBlend mode="normal" in="SourceGraphic" in2="BackgroundImageFix" result="shape"/>
<feColorMatrix in="SourceAlpha" type="matrix" values="0 0 0 0 0 0 0 0 0 0 0 0 0 0 0 0 0 0 127 0" result="hardAlpha"/>
<feOffset dy="9.99015"/>
<feGaussianBlur stdDeviation="4.99507"/>
<feComposite in2="hardAlpha" operator="arithmetic" k2="-1" k3="1"/>
<feColorMatrix type="matrix" values="0 0 0 0 0 0 0 0 0 0.695805 0 0 0 0 0.933012 0 0 0 0.25 0"/>
<feBlend mode="normal" in2="shape" result="effect1_innerShadow_519_1007"/>
</filter>
<filter id="filter7_i_519_1007" x="287.746" y="235.512" width="52.5347" height="41.5116" filterUnits="userSpaceOnUse" color-interpolation-filters="sRGB">
<feFlood flood-opacity="0" result="BackgroundImageFix"/>
<feBlend mode="normal" in="SourceGraphic" in2="BackgroundImageFix" result="shape"/>
<feColorMatrix in="SourceAlpha" type="matrix" values="0 0 0 0 0 0 0 0 0 0 0 0 0 0 0 0 0 0 127 0" result="hardAlpha"/>
<feOffset dy="9.99015"/>
<feGaussianBlur stdDeviation="4.99507"/>
<feComposite in2="hardAlpha" operator="arithmetic" k2="-1" k3="1"/>
<feColorMatrix type="matrix" values="0 0 0 0 0 0 0 0 0 0.695805 0 0 0 0 0.933012 0 0 0 0.25 0"/>
<feBlend mode="normal" in2="shape" result="effect1_innerShadow_519_1007"/>
</filter>
<filter id="filter8_i_519_1007" x="287.746" y="280.164" width="52.5347" height="41.5116" filterUnits="userSpaceOnUse" color-interpolation-filters="sRGB">
<feFlood flood-opacity="0" result="BackgroundImageFix"/>
<feBlend mode="normal" in="SourceGraphic" in2="BackgroundImageFix" result="shape"/>
<feColorMatrix in="SourceAlpha" type="matrix" values="0 0 0 0 0 0 0 0 0 0 0 0 0 0 0 0 0 0 127 0" result="hardAlpha"/>
<feOffset dy="9.99015"/>
<feGaussianBlur stdDeviation="4.99507"/>
<feComposite in2="hardAlpha" operator="arithmetic" k2="-1" k3="1"/>
<feColorMatrix type="matrix" values="0 0 0 0 0 0 0 0 0 0.695805 0 0 0 0 0.933012 0 0 0 0.25 0"/>
<feBlend mode="normal" in2="shape" result="effect1_innerShadow_519_1007"/>
</filter>
<linearGradient id="paint0_linear_519_1007" x1="330.186" y1="46.4326" x2="303.16" y2="72.4613" gradientUnits="userSpaceOnUse">
<stop stop-color="#7BDEFF"/>
<stop offset="1" stop-color="#006FB3"/>
</linearGradient>
<linearGradient id="paint1_linear_519_1007" x1="309.454" y1="10.0995" x2="317.351" y2="44.8569" gradientUnits="userSpaceOnUse">
<stop stop-color="#71DBFF"/>
<stop offset="0.963889" stop-color="#006FB3"/>
</linearGradient>
<linearGradient id="paint2_linear_519_1007" x1="353.654" y1="30.667" x2="326.629" y2="56.6957" gradientUnits="userSpaceOnUse">
<stop stop-color="#7BDEFF"/>
<stop offset="1" stop-color="#006FB3"/>
</linearGradient>
<linearGradient id="paint3_linear_519_1007" x1="332.923" y1="-5.66609" x2="340.819" y2="29.0913" gradientUnits="userSpaceOnUse">
<stop stop-color="#71DBFF"/>
<stop offset="0.963889" stop-color="#006FB3"/>
</linearGradient>
<linearGradient id="paint4_linear_519_1007" x1="376.613" y1="27.3428" x2="349.587" y2="53.3715" gradientUnits="userSpaceOnUse">
<stop stop-color="#7BDEFF"/>
<stop offset="1" stop-color="#006FB3"/>
</linearGradient>
<linearGradient id="paint5_linear_519_1007" x1="355.881" y1="-8.99031" x2="363.777" y2="25.767" gradientUnits="userSpaceOnUse">
<stop stop-color="#71DBFF"/>
<stop offset="0.963889" stop-color="#006FB3"/>
</linearGradient>
<linearGradient id="paint6_linear_519_1007" x1="396.191" y1="46.0869" x2="371.758" y2="61.549" gradientUnits="userSpaceOnUse">
<stop stop-color="#7BDEFF"/>
<stop offset="1" stop-color="#006FB3"/>
</linearGradient>
<linearGradient id="paint7_linear_519_1007" x1="302.127" y1="30.054" x2="300.665" y2="76.4562" gradientUnits="userSpaceOnUse">
<stop stop-color="#71DBFF"/>
<stop offset="0.963889" stop-color="#006FB3"/>
</linearGradient>
<linearGradient id="paint8_linear_519_1007" x1="422.675" y1="92.8707" x2="388.829" y2="101.647" gradientUnits="userSpaceOnUse">
<stop stop-color="#71DBFF"/>
<stop offset="0.963889" stop-color="#006FB3"/>
</linearGradient>
<radialGradient id="paint9_radial_519_1007" cx="0" cy="0" r="1" gradientUnits="userSpaceOnUse" gradientTransform="translate(312.083 54.0312) rotate(113.306) scale(46.0047 32.8375)">
<stop stop-color="#03EBB5"/>
<stop offset="1" stop-color="#00C89A"/>
</radialGradient>
<linearGradient id="paint10_linear_519_1007" x1="302.515" y1="24.1495" x2="283.66" y2="65.6767" gradientUnits="userSpaceOnUse">
<stop stop-color="#00ABF4"/>
<stop offset="1" stop-color="#4DC4EC"/>
</linearGradient>
<radialGradient id="paint11_radial_519_1007" cx="0" cy="0" r="1" gradientUnits="userSpaceOnUse" gradientTransform="translate(338.397 43.6894) rotate(113.306) scale(46.0047 32.8375)">
<stop stop-color="#03EBB5"/>
<stop offset="1" stop-color="#00C89A"/>
</radialGradient>
<linearGradient id="paint12_linear_519_1007" x1="323.03" y1="23.8159" x2="309.705" y2="57.6591" gradientUnits="userSpaceOnUse">
<stop stop-color="#00ABF4"/>
<stop offset="0.903762" stop-color="#4DC4EC"/>
</linearGradient>
<radialGradient id="paint13_radial_519_1007" cx="0" cy="0" r="1" gradientUnits="userSpaceOnUse" gradientTransform="translate(361.532 45.3886) rotate(113.306) scale(46.0047 32.8375)">
<stop stop-color="#03EBB5"/>
<stop offset="1" stop-color="#00C89A"/>
</radialGradient>
<linearGradient id="paint14_linear_519_1007" x1="355.431" y1="19.1696" x2="330.16" y2="63.2389" gradientUnits="userSpaceOnUse">
<stop stop-color="#00ABF4"/>
<stop offset="1" stop-color="#4DC4EC"/>
</linearGradient>
<linearGradient id="paint15_linear_519_1007" x1="332.666" y1="43.1566" x2="368.804" y2="38.7901" gradientUnits="userSpaceOnUse">
<stop stop-color="#006FB3" stop-opacity="0"/>
<stop offset="1" stop-color="#006FB3"/>
</linearGradient>
<radialGradient id="paint16_radial_519_1007" cx="0" cy="0" r="1" gradientUnits="userSpaceOnUse" gradientTransform="translate(376.613 67.9101) rotate(113.306) scale(46.0047 32.8375)">
<stop stop-color="#03EBB5"/>
<stop offset="1" stop-color="#00C89A"/>
</radialGradient>
<linearGradient id="paint17_linear_519_1007" x1="363.537" y1="42.3922" x2="349.393" y2="92.1983" gradientUnits="userSpaceOnUse">
<stop stop-color="#00ABF4"/>
<stop offset="0.840159" stop-color="#4DC4EC"/>
</linearGradient>
<linearGradient id="paint18_linear_519_1007" x1="24.7701" y1="28.2065" x2="-6.85372" y2="10.1798" gradientUnits="userSpaceOnUse">
<stop stop-color="#006FB3" stop-opacity="0"/>
<stop offset="1" stop-color="#006FB3"/>
</linearGradient>
<linearGradient id="paint19_linear_519_1007" x1="390.128" y1="96.2491" x2="361.638" y2="116.521" gradientUnits="userSpaceOnUse">
<stop offset="0.0361111" stop-color="#00B1EE"/>
<stop offset="1" stop-color="#4DC4EC"/>
</linearGradient>
<radialGradient id="paint20_radial_519_1007" cx="0" cy="0" r="1" gradientUnits="userSpaceOnUse" gradientTransform="translate(298.401 114.714) rotate(45.3736) scale(34.4295 37.8667)">
<stop stop-color="#00B1EE"/>
<stop offset="1" stop-color="#4DC4EC" stop-opacity="0"/>
</radialGradient>
<radialGradient id="paint21_radial_519_1007" cx="0" cy="0" r="1" gradientUnits="userSpaceOnUse" gradientTransform="translate(280.733 108.535) rotate(45.3736) scale(13.0224 14.3225)">
<stop stop-color="#006FB3"/>
<stop offset="1" stop-color="#006FB3" stop-opacity="0"/>
</radialGradient>
<radialGradient id="paint22_radial_519_1007" cx="0" cy="0" r="1" gradientUnits="userSpaceOnUse" gradientTransform="translate(313.959 119.424) rotate(45.3736) scale(13.0224 14.3225)">
<stop stop-color="#006FB3"/>
<stop offset="1" stop-color="#006FB3" stop-opacity="0"/>
</radialGradient>
<linearGradient id="paint23_linear_519_1007" x1="160.019" y1="235.084" x2="144.784" y2="296.048" gradientUnits="userSpaceOnUse">
<stop stop-color="#FFE261"/>
<stop offset="1" stop-color="#FFD51D"/>
</linearGradient>
<linearGradient id="paint24_linear_519_1007" x1="98.0658" y1="77.2267" x2="68.4326" y2="149.685" gradientUnits="userSpaceOnUse">
<stop stop-color="#FFE261"/>
<stop offset="1" stop-color="#FDAF02"/>
</linearGradient>
<linearGradient id="paint25_linear_519_1007" x1="61.6838" y1="166.899" x2="-7.08948" y2="196.722" gradientUnits="userSpaceOnUse">
<stop stop-color="#FFE261"/>
<stop offset="1" stop-color="#FFD51D"/>
</linearGradient>
<linearGradient id="paint26_linear_519_1007" x1="81.169" y1="206.283" x2="49.8667" y2="223.909" gradientUnits="userSpaceOnUse">
<stop stop-color="#FFE261"/>
<stop offset="1" stop-color="#FFD51D"/>
</linearGradient>
<linearGradient id="paint27_linear_519_1007" x1="110.978" y1="234.854" x2="99.3159" y2="258.088" gradientUnits="userSpaceOnUse">
<stop stop-color="#FFE261"/>
<stop offset="1" stop-color="#FFD51D"/>
</linearGradient>
<linearGradient id="paint28_linear_519_1007" x1="154.63" y1="250.67" x2="154.667" y2="91.1526" gradientUnits="userSpaceOnUse">
<stop stop-color="#FFD51D"/>
<stop offset="1" stop-color="#FFE261"/>
</linearGradient>
<radialGradient id="paint29_radial_519_1007" cx="0" cy="0" r="1" gradientUnits="userSpaceOnUse" gradientTransform="translate(69.4318 85.6911) rotate(-13.9123) scale(64.0539 67.5367)">
<stop offset="0.370192" stop-color="#FFE46C"/>
<stop offset="1" stop-color="#FFE46C" stop-opacity="0"/>
</radialGradient>
<radialGradient id="paint30_radial_519_1007" cx="0" cy="0" r="1" gradientUnits="userSpaceOnUse" gradientTransform="translate(23.8983 22.4301) scale(16.7981 16.4827)">
<stop offset="0.45" stop-color="#FFE46C"/>
<stop offset="1" stop-color="#FFE46C" stop-opacity="0"/>
</radialGradient>
<radialGradient id="paint31_radial_519_1007" cx="0" cy="0" r="1" gradientUnits="userSpaceOnUse" gradientTransform="translate(21.3961 20.0816) scale(15.0393 14.757)">
<stop offset="0.45" stop-color="#FFE46C"/>
<stop offset="1" stop-color="#FFE46C" stop-opacity="0"/>
</radialGradient>
<linearGradient id="paint32_linear_519_1007" x1="247.41" y1="175.225" x2="144.635" y2="183.625" gradientUnits="userSpaceOnUse">
<stop stop-color="#FD8802"/>
<stop offset="0.617105" stop-color="#FFE261"/>
</linearGradient>
</defs>
</svg>
