<svg width="111" height="61" viewBox="0 0 111 61" fill="none" xmlns="http://www.w3.org/2000/svg">
<path d="M46.8484 35.0931C44.9459 35.5131 42.8358 35.828 40.5183 36.038C38.2353 36.213 35.4508 36.318 32.1647 36.353V42.6522H51.103V48.4265H7V42.6522H25.9383V36.353H12.1886V9.26636H45.9144V15.0931H18.3111V20.08H45.3955V25.8018H18.3111V30.5262H29.726C31.4901 30.5262 33.0813 30.5087 34.4995 30.4737C35.9523 30.4387 37.3186 30.3862 38.5985 30.3162C39.8784 30.2462 41.1236 30.1413 42.3343 30.0013C43.545 29.8263 44.8075 29.6163 46.122 29.3714L46.8484 35.0931Z" fill="#00C89A"/>
<path d="M87.5684 33.7283V30.0538C85.1125 30.6137 82.2933 30.9986 79.111 31.2086C75.9287 31.4186 72.1064 31.5236 67.6442 31.5236H56.4887V8.58395H80.9789V14.3582H62.7669V25.7493H67.6961C71.9853 25.7493 75.7211 25.6443 78.9035 25.4343C82.1204 25.1894 85.0087 24.7694 87.5684 24.1745V7.16663H93.7947V18.9252H101.889V24.6994H93.7947V33.7283H87.5684ZM87.5684 42.1797H60.3802V36.4055H93.7947V53.8333H87.5684V42.1797Z" fill="#00C89A"/>
</svg>
