<svg width="80" height="80" viewBox="0 0 80 80" fill="none" xmlns="http://www.w3.org/2000/svg">
<path d="M48.1573 23.3456C47.8889 22.5136 47.1113 21.9522 46.2371 21.9596L7.55118 22.2835C6.25387 22.2944 5.31007 23.5184 5.62949 24.7759L17.7184 72.3653C17.9582 73.3094 18.8434 73.9435 19.8145 73.8666L60.8189 70.623C62.1062 70.5212 62.961 69.2443 62.5646 68.0154L48.1573 23.3456Z" fill="#006D54"/>
<path d="M48.3277 22.0323C48.0599 21.2083 47.292 20.6504 46.4256 20.6504H8.47823C7.1686 20.6504 6.21237 21.8882 6.54303 23.1554L18.955 70.7211C19.2001 71.6603 20.0842 72.288 21.0517 72.2096L60.991 68.9734C62.2783 68.8691 63.1307 67.5902 62.7315 66.3619L48.3277 22.0323Z" fill="#00C89A"/>
<path d="M46.7533 23.4071C46.4829 22.5766 45.705 22.0176 44.8317 22.0262L12.6692 22.3441C11.3723 22.357 10.4305 23.5816 10.7509 24.8383L21.7149 67.8309C21.9545 68.7704 22.8335 69.4028 23.8004 69.3312L58.2663 66.7821C59.5605 66.6864 60.4223 65.4026 60.0206 64.1685L46.7533 23.4071Z" fill="white"/>
<path d="M33.8311 21.4001C33.5691 20.5668 32.7967 20 31.9232 20H26.084C24.7332 20 23.7709 21.3113 24.1761 22.5999L24.5509 23.7919C24.8129 24.6251 25.5853 25.192 26.4588 25.192H32.298C33.6488 25.192 34.6111 23.8806 34.2059 22.5921L33.8311 21.4001Z" fill="#B69260"/>
<path d="M50.4214 50.0391L23.3436 51.1517" stroke="#DDDDDD"/>
<path d="M48.8887 44.6758L21.8109 45.7884" stroke="#DDDDDD"/>
<path d="M51.7505 55.4043L24.6727 56.5169" stroke="#DDDDDD"/>
<circle cx="68" cy="25" r="10" fill="#4DC4EC"/>
<circle cx="63.3846" cy="25.3846" r="1.38462" fill="white"/>
<circle cx="67.9998" cy="25.3846" r="1.38462" fill="white"/>
<circle cx="72.6156" cy="25.3846" r="1.38462" fill="white"/>
</svg>
