<svg width="48" height="48" viewBox="0 0 48 48" fill="none" xmlns="http://www.w3.org/2000/svg">
<path d="M46 24C46 36.1503 36.1503 46 24 46C11.8497 46 2 36.1503 2 24C2 11.8497 11.8497 2 24 2C36.1503 2 46 11.8497 46 24Z" fill="#FF7D7D"/>
<path d="M21 22C21 23.6569 19.6569 25 18 25C16.3431 25 15 23.6569 15 22C15 20.3431 16.3431 19 18 19C19.6569 19 21 20.3431 21 22Z" fill="#961111"/>
<path d="M33 22C33 23.6569 31.6569 25 30 25C28.3431 25 27 23.6569 27 22C27 20.3431 28.3431 19 30 19C31.6569 19 33 20.3431 33 22Z" fill="#961111"/>
<path d="M19 20C19 20.5523 18.5523 21 18 21C17.4477 21 17 20.5523 17 20C17 19.4477 17.4477 19 18 19C18.5523 19 19 19.4477 19 20Z" fill="white"/>
<path d="M31 20C31 20.5523 30.5523 21 30 21C29.4477 21 29 20.5523 29 20C29 19.4477 29.4477 19 30 19C30.5523 19 31 19.4477 31 20Z" fill="white"/>
<path d="M13.9393 11.9393C14.5251 11.3536 15.4746 11.3536 16.0604 11.9393C17.0146 12.8935 18.401 14.0641 19.4139 14.9022L19.8573 14.3817L19.9618 14.2694C20.5102 13.7427 21.3797 13.7068 21.9716 14.2098C22.6027 14.7464 22.679 15.6929 22.1425 16.3241L19.7811 19.1034L18.6395 18.1522C18.0888 17.6933 15.5027 15.6238 13.9393 14.0604C13.3536 13.4746 13.3536 12.5251 13.9393 11.9393Z" fill="#961111" fill-opacity="0.5"/>
<path d="M24.9393 13.9393C25.5251 13.3536 26.4746 13.3536 27.0604 13.9393C27.6462 14.5251 27.6462 15.4746 27.0604 16.0604L24.0604 19.0604C23.4746 19.6462 22.5251 19.6462 21.9393 19.0604C21.3536 18.4746 21.3536 17.5251 21.9393 16.9393L24.9393 13.9393Z" fill="#961111" fill-opacity="0.5"/>
<path d="M32.6521 11.4036C33.3137 10.9051 34.254 11.0374 34.7526 11.6989C35.2511 12.3605 35.1189 13.3008 34.4573 13.7993L29.5821 17.4729C28.9205 17.9714 27.9802 17.8392 27.4816 17.1776C26.9832 16.516 27.1153 15.5757 27.7769 15.0772L32.6521 11.4036Z" fill="#961111" fill-opacity="0.5"/>
<path d="M24.487 28.5C27.1434 28.5001 28.746 30.0477 29.5837 31.5557C29.9943 32.2949 30.2398 33.0463 30.3708 33.6641C30.4365 33.9738 30.4776 34.2694 30.4929 34.5322C30.5044 34.7314 30.5158 35.106 30.4001 35.4629C30.1445 36.2506 29.2993 36.682 28.5114 36.4268C27.7879 36.1923 27.3657 35.4606 27.4987 34.7324C27.4984 34.7248 27.4983 34.7158 27.4977 34.7061C27.4925 34.6166 27.4756 34.4718 27.4362 34.2861C27.3569 33.9125 27.2052 33.4501 26.9616 33.0117C26.4907 32.1641 25.7561 31.5001 24.487 31.5C23.5451 31.5 22.8868 31.9653 22.3776 32.7168C21.8398 33.5106 21.5634 34.5125 21.4899 35.167C21.3976 35.9902 20.6559 36.5825 19.8327 36.4902C19.0095 36.3979 18.4172 35.6562 18.5095 34.833C18.623 33.8209 19.0196 32.3226 19.8933 31.0332C20.7956 29.7015 22.2881 28.5 24.487 28.5Z" fill="#961111"/>
</svg>
