<svg width="48" height="48" viewBox="0 0 48 48" fill="none" xmlns="http://www.w3.org/2000/svg">
<path d="M46 24C46 36.1503 36.1503 46 24 46C11.8497 46 2 36.1503 2 24C2 11.8497 11.8497 2 24 2C36.1503 2 46 11.8497 46 24Z" fill="#00C89A"/>
<path d="M21 22C21 23.6569 19.6569 25 18 25C16.3431 25 15 23.6569 15 22C15 20.3431 16.3431 19 18 19C19.6569 19 21 20.3431 21 22Z" fill="#006D54"/>
<path d="M33 22C33 23.6569 31.6569 25 30 25C28.3431 25 27 23.6569 27 22C27 20.3431 28.3431 19 30 19C31.6569 19 33 20.3431 33 22Z" fill="#006D54"/>
<path d="M19 20C19 20.5523 18.5523 21 18 21C17.4477 21 17 20.5523 17 20C17 19.4477 17.4477 19 18 19C18.5523 19 19 19.4477 19 20Z" fill="white"/>
<path d="M31 20C31 20.5523 30.5523 21 30 21C29.4477 21 29 20.5523 29 20C29 19.4477 29.4477 19 30 19C30.5523 19 31 19.4477 31 20Z" fill="white"/>
<path d="M23.9988 39C29.3265 39 33.7695 35.5567 34.7822 30.9846C35.021 29.9062 34.1033 29 32.9988 29L14.9988 29C13.8942 29 12.9765 29.9062 13.2154 30.9846C14.228 35.5567 18.6711 39 23.9988 39Z" fill="#027057"/>
<path d="M17.8611 12.4641C18.6749 12.619 19.209 13.4045 19.0541 14.2183C18.8991 15.0321 18.1137 15.5662 17.2999 15.4112C16.8695 15.3294 16.3686 15.4105 15.8546 15.6177C15.3412 15.8246 14.9346 16.1101 14.7561 16.2672C14.1343 16.8146 13.1859 16.7545 12.6385 16.1327C12.0911 15.5109 12.1512 14.5625 12.773 14.0151C13.1956 13.6431 13.8921 13.1738 14.7336 12.8347C15.5745 12.4958 16.681 12.2394 17.8611 12.4641Z" fill="#006D54" fill-opacity="0.5"/>
<path d="M29.4875 12.4641C28.6738 12.619 28.1396 13.4045 28.2946 14.2183C28.4495 15.0321 29.2349 15.5662 30.0487 15.4112C30.4791 15.3294 30.98 15.4105 31.4941 15.6177C32.0074 15.8246 32.4141 16.1101 32.5926 16.2672C33.2144 16.8146 34.1627 16.7545 34.7101 16.1327C35.2575 15.5109 35.1975 14.5625 34.5757 14.0151C34.1531 13.6431 33.4565 13.1738 32.6151 12.8347C31.7742 12.4958 30.6676 12.2394 29.4875 12.4641Z" fill="#006D54" fill-opacity="0.5"/>
<path d="M21 29H27V31H21V29Z" fill="white"/>
</svg>
