<svg width="48" height="48" viewBox="0 0 48 48" fill="none" xmlns="http://www.w3.org/2000/svg">
<path d="M46 24C46 36.1503 36.1503 46 24 46C11.8497 46 2 36.1503 2 24C2 11.8497 11.8497 2 24 2C36.1503 2 46 11.8497 46 24Z" fill="#FFE261"/>
<path d="M21 22C21 23.6569 19.6569 25 18 25C16.3431 25 15 23.6569 15 22C15 20.3431 16.3431 19 18 19C19.6569 19 21 20.3431 21 22Z" fill="#766414"/>
<path d="M33 22C33 23.6569 31.6569 25 30 25C28.3431 25 27 23.6569 27 22C27 20.3431 28.3431 19 30 19C31.6569 19 33 20.3431 33 22Z" fill="#766414"/>
<path d="M19 20C19 20.5523 18.5523 21 18 21C17.4477 21 17 20.5523 17 20C17 19.4477 17.4477 19 18 19C18.5523 19 19 19.4477 19 20Z" fill="white"/>
<path d="M31 20C31 20.5523 30.5523 21 30 21C29.4477 21 29 20.5523 29 20C29 19.4477 29.4477 19 30 19C30.5523 19 31 19.4477 31 20Z" fill="white"/>
<path d="M16.5 31C16.5 30.1716 17.1716 29.5 18 29.5C18.8284 29.5 19.5 30.1716 19.5 31C19.5 31.0976 19.512 31.1487 19.5176 31.168C19.551 31.194 19.6883 31.2826 20.0605 31.3594C20.9507 31.5428 22.2182 31.5 24 31.5C25.7818 31.5 27.0493 31.5428 27.9395 31.3594C28.3095 31.2831 28.4469 31.1946 28.4814 31.168C28.487 31.149 28.5 31.098 28.5 31C28.5 30.1716 29.1716 29.5 30 29.5C30.8284 29.5 31.5 30.1716 31.5 31C31.5 31.8874 31.2144 32.7059 30.5664 33.3271C29.9708 33.8981 29.2142 34.16 28.5459 34.2979C27.2645 34.562 25.5317 34.5 24 34.5C22.4683 34.5 20.7355 34.562 19.4541 34.2979C18.7858 34.16 18.0292 33.8981 17.4336 33.3271C16.7856 32.7059 16.5 31.8874 16.5 31Z" fill="#766414"/>
<path d="M18.7463 12.3768C19.5736 12.4176 20.2111 13.122 20.1704 13.9494C20.1295 14.7766 19.4258 15.4134 18.5985 15.3727L18.5979 15.3735C18.5968 15.3734 18.5942 15.3736 18.5916 15.3734C18.5864 15.3732 18.5784 15.3723 18.5678 15.3718C18.5458 15.3708 18.5124 15.3695 18.4695 15.3678C18.383 15.3643 18.2568 15.3595 18.1035 15.3549C17.7959 15.3457 17.3821 15.3374 16.9504 15.3395C16.5134 15.3418 16.0814 15.355 15.7316 15.3854C15.5562 15.4006 15.4233 15.4185 15.3321 15.4358C15.2653 15.4485 15.2485 15.4557 15.2656 15.4499C14.5422 15.7608 13.6938 15.4603 13.3354 14.7476C12.9632 14.0075 13.2614 13.1052 14.0015 12.7331L14.2105 12.6419C14.4196 12.5621 14.6224 12.5172 14.7733 12.4886C14.9984 12.4459 15.2392 12.4173 15.4719 12.3971C15.9385 12.3565 16.4618 12.3421 16.9346 12.3397C17.4123 12.3372 17.8634 12.3464 18.1934 12.3562C18.3587 12.3611 18.495 12.3667 18.5908 12.3706C18.6386 12.3725 18.6767 12.3733 18.703 12.3745C18.7161 12.3751 18.7266 12.3764 18.7338 12.3768C18.7373 12.3769 18.7401 12.3772 18.7422 12.3773C18.7432 12.3773 18.7443 12.3769 18.7449 12.377L18.7457 12.3776C18.7455 12.3836 18.7409 12.4751 18.6721 13.8751C18.6702 13.913 18.6684 13.9502 18.6666 13.9862L18.7463 12.3768Z" fill="#766414" fill-opacity="0.5"/>
<path d="M32.0705 12.3768C32.8978 12.4176 33.5353 13.122 33.4946 13.9494C33.4538 14.7766 32.75 15.4134 31.9227 15.3727L31.9221 15.3735C31.921 15.3734 31.9184 15.3736 31.9158 15.3734C31.9106 15.3732 31.9026 15.3723 31.892 15.3718C31.87 15.3708 31.8366 15.3695 31.7937 15.3678C31.7072 15.3643 31.581 15.3595 31.4277 15.3549C31.1202 15.3457 30.7064 15.3374 30.2746 15.3395C29.8376 15.3418 29.4057 15.355 29.0558 15.3854C28.8804 15.4006 28.7475 15.4185 28.6563 15.4358C28.5895 15.4485 28.5728 15.4557 28.5898 15.4499C27.8665 15.7608 27.018 15.4603 26.6596 14.7476C26.2874 14.0075 26.5856 13.1052 27.3258 12.7331L27.5348 12.6419C27.7438 12.5621 27.9467 12.5172 28.0975 12.4886C28.3226 12.4459 28.5634 12.4173 28.7961 12.3971C29.2627 12.3565 29.786 12.3421 30.2588 12.3397C30.7365 12.3372 31.1876 12.3464 31.5176 12.3562C31.6829 12.3611 31.8192 12.3667 31.915 12.3706C31.9628 12.3725 32.0009 12.3733 32.0272 12.3745C32.0404 12.3751 32.0508 12.3764 32.058 12.3768C32.0616 12.3769 32.0643 12.3772 32.0664 12.3773C32.0674 12.3773 32.0685 12.3769 32.0691 12.377L32.0699 12.3776C32.0697 12.3836 32.0651 12.4751 31.9963 13.8751C31.9944 13.913 31.9926 13.9502 31.9908 13.9862L32.0705 12.3768Z" fill="#766414" fill-opacity="0.5"/>
</svg>
