<svg width="90" height="95" viewBox="0 0 90 95" fill="none" xmlns="http://www.w3.org/2000/svg">
<path d="M42.6123 36.8771C42.8131 36.263 43.3859 35.8477 44.0319 35.8477H87.5607C88.5767 35.8477 89.2962 36.84 88.9804 37.8056L70.9076 93.0714C70.7068 93.6855 70.134 94.1008 69.4879 94.1008H25.9591C24.9432 94.1008 24.2237 93.1085 24.5395 92.1429L42.6123 36.8771Z" fill="#006FB3"/>
<path d="M41.8652 35.3849C42.066 34.7708 42.6388 34.3555 43.2849 34.3555H86.8137C87.8296 34.3555 88.5491 35.3478 88.2334 36.3134L70.1605 91.5792C69.9597 92.1933 69.3869 92.6086 68.7409 92.6086H25.2121C24.1961 92.6086 23.4766 91.6163 23.7924 90.6507L41.8652 35.3849Z" fill="#00B1EE"/>
<path d="M38.538 36.1219C38.7417 35.5125 39.3122 35.1016 39.9547 35.1016H80.825C81.845 35.1016 82.5649 36.1012 82.2417 37.0686L65.2725 87.8534C65.0689 88.4628 64.4984 88.8737 63.8558 88.8737H22.9855C21.9656 88.8737 21.2456 87.8741 21.5689 86.9067L38.538 36.1219Z" fill="white"/>
<path d="M54.2152 34.5634C54.4375 33.9873 54.9913 33.6074 55.6087 33.6074H63.5443C64.5932 33.6074 65.3154 34.6602 64.9378 35.6388L63.7851 38.6262C63.5628 39.2022 63.009 39.5821 62.3916 39.5821H54.456C53.4071 39.5821 52.6849 38.5293 53.0625 37.5507L54.2152 34.5634Z" fill="#B69260"/>
<path d="M68.7091 57.1328V57.8796H36.5952V57.1328H68.7091Z" fill="#DDDDDD"/>
<path d="M67.2155 63.1074V63.8543H35.1016V63.1074H67.2155Z" fill="#DDDDDD"/>
<path d="M64.2282 69.082V69.8289H32.1143V69.082H64.2282Z" fill="#DDDDDD"/>
<path d="M61.2409 75.8047V76.5515H29.127V75.8047H61.2409Z" fill="#DDDDDD"/>
<path d="M22.4051 35.849C22.4051 42.036 17.3895 47.0515 11.2025 47.0515C5.01554 47.0515 0 42.036 0 35.849C0 29.662 5.01554 24.6465 11.2025 24.6465C17.3895 24.6465 22.4051 29.662 22.4051 35.849Z" fill="#FFACAC"/>
<path d="M41.823 11.2025C41.823 17.3895 36.8075 22.4051 30.6205 22.4051C24.4335 22.4051 19.418 17.3895 19.418 11.2025C19.418 5.01554 24.4335 0 30.6205 0C36.8075 0 41.823 5.01554 41.823 11.2025Z" fill="#C69BFF"/>
<path d="M75.4305 12.6967C75.4305 18.8837 70.4149 23.8992 64.2279 23.8992C58.0409 23.8992 53.0254 18.8837 53.0254 12.6967C53.0254 6.50969 58.0409 1.49414 64.2279 1.49414C70.4149 1.49414 75.4305 6.50969 75.4305 12.6967Z" fill="#FFE28A"/>
</svg>
