<svg width="24" height="24" viewBox="0 0 24 24" fill="none" xmlns="http://www.w3.org/2000/svg">
<path d="M19.1121 9.75C18.9846 9.75 18.4352 9.75375 18.2369 9.76453L15.529 9.83578L9.28428 2.25H6.34006L9.83646 9.96609L5.27506 10.0336L3.19943 7.5H0.756777L1.72287 11.9147C1.7299 11.94 1.73834 11.9648 1.74771 11.9892C1.74841 11.9915 1.74841 11.994 1.74771 11.9962C1.73807 12.0205 1.72977 12.0452 1.72287 12.0703L0.743652 16.5H3.17084L5.30131 13.9219L9.8374 14.0236L6.33959 21.75H9.29272L15.5271 14.168L18.2351 14.2402C18.4362 14.2509 18.9851 14.2547 19.1097 14.2547C20.2512 14.2547 21.1849 14.0981 21.8852 13.7888C23.073 13.2656 23.2502 12.4434 23.2502 12C23.2502 10.5909 21.7033 9.75 19.1121 9.75Z" fill="black"/>
</svg>
