<svg width="24" height="24" viewBox="0 0 24 24" fill="none" xmlns="http://www.w3.org/2000/svg">
<path d="M20 12C20 7.58172 16.4183 4 12 4C7.58172 4 4 7.58172 4 12C4 16.4183 7.58172 20 12 20C16.4183 20 20 16.4183 20 12ZM11 15.375V15.3359C11 14.7837 11.4477 14.3359 12 14.3359C12.5523 14.3359 13 14.7837 13 15.3359V15.375C13 15.9273 12.5523 16.375 12 16.375C11.4477 16.375 11 15.9273 11 15.375ZM11 12V7.5C11 6.94772 11.4477 6.5 12 6.5C12.5523 6.5 13 6.94772 13 7.5V12C13 12.5523 12.5523 13 12 13C11.4477 13 11 12.5523 11 12ZM22 12C22 17.5228 17.5228 22 12 22C6.47715 22 2 17.5228 2 12C2 6.47715 6.47715 2 12 2C17.5228 2 22 6.47715 22 12Z" fill="currentColor"/>
</svg>
