<svg width="24" height="24" viewBox="0 0 24 24" fill="none" xmlns="http://www.w3.org/2000/svg">
<path d="M8.25394 5.07227C9.97376 2.30924 14.0263 2.30925 15.7461 5.07227C15.755 5.0865 15.7634 5.10156 15.7715 5.11622L21.4414 15.3398C21.821 15.964 22.1843 16.8774 21.8965 17.8574C21.3617 19.6785 19.6681 21 17.67 21H6.33011C4.33193 21 2.63833 19.6785 2.10355 17.8574C1.81579 16.8774 2.17908 15.964 2.55863 15.3398L8.22855 5.11622L8.25394 5.07227ZM14.0381 6.11426C13.0987 4.62887 10.9002 4.62858 9.96097 6.11426L4.30765 16.3096C4.29952 16.3242 4.29112 16.3393 4.28226 16.3535C4.01111 16.7893 3.96576 17.1007 4.0225 17.294C4.31031 18.274 5.23042 19 6.33011 19H17.67C18.7697 19 19.6898 18.274 19.9776 17.294C20.0343 17.1007 19.989 16.7893 19.7178 16.3535C19.709 16.3393 19.7006 16.3242 19.6924 16.3096L14.0381 6.11426ZM11 16.2647V16.2246C11.0001 15.6724 11.4478 15.2246 12 15.2246C12.5523 15.2246 12.9999 15.6724 13 16.2246V16.2647C12.9998 16.8167 12.5522 17.2647 12 17.2647C11.4479 17.2647 11.0003 16.8167 11 16.2647ZM11 12.9004V8.41407C11.0003 7.86197 11.4479 7.41407 12 7.41407C12.5522 7.41407 12.9998 7.86197 13 8.41407V12.9004C12.9998 13.4525 12.5522 13.9004 12 13.9004C11.4479 13.9004 11.0002 13.4525 11 12.9004Z" fill="#32363E"/>
</svg>
