<svg width="21" height="26" viewBox="0 0 21 26" fill="none" xmlns="http://www.w3.org/2000/svg">
<path d="M10.5007 25.2227C10.5007 25.2227 19.892 16.8748 19.892 10.614C19.892 5.42729 15.6874 1.22266 10.5007 1.22266C5.31401 1.22266 1.10938 5.42729 1.10938 10.614C1.10938 16.8748 10.5007 25.2227 10.5007 25.2227Z" fill="#00C89A" stroke="#00B68C" stroke-width="0.670808"/>
<path d="M5.75 14.3187V8.90453C5.75 8.74507 5.78571 8.59412 5.85714 8.45168C5.92856 8.30925 6.02698 8.19194 6.15239 8.09975L9.50667 5.55959C9.68232 5.42546 9.88289 5.3584 10.1084 5.3584C10.3339 5.3584 10.5357 5.42546 10.7138 5.55959L14.0681 8.09913C14.1939 8.19132 14.2924 8.30883 14.3634 8.45168C14.4348 8.59412 14.4705 8.74507 14.4705 8.90453V14.3187C14.4705 14.4856 14.4084 14.6312 14.2843 14.7554C14.1601 14.8795 14.0145 14.9416 13.8476 14.9416H11.7397C11.5969 14.9416 11.4773 14.8934 11.381 14.7971C11.2846 14.7003 11.2364 14.5807 11.2364 14.4383V11.4677C11.2364 11.3253 11.1883 11.2059 11.0919 11.1096C10.9952 11.0128 10.8756 10.9644 10.7331 10.9644H9.48736C9.34492 10.9644 9.22553 11.0128 9.12919 11.1096C9.03244 11.2059 8.98406 11.3253 8.98406 11.4677V14.4389C8.98406 14.5814 8.93589 14.7008 8.83955 14.7971C8.74321 14.8934 8.62382 14.9416 8.48139 14.9416H6.37289C6.20596 14.9416 6.06041 14.8795 5.93624 14.7554C5.81208 14.6312 5.75 14.4856 5.75 14.3187Z" fill="white"/>
</svg>
