<svg width="24" height="24" viewBox="0 0 24 24" fill="none" xmlns="http://www.w3.org/2000/svg">
<path d="M9.94204 4.31049C10.3229 3.91062 10.9562 3.89462 11.3561 4.27534C11.756 4.65622 11.7712 5.28947 11.3903 5.6894L6.33267 10.9999H19.9997L20.1022 11.0048C20.6063 11.0562 20.9997 11.4823 20.9997 11.9999C20.9997 12.5176 20.6063 12.9437 20.1022 12.9951L19.9997 12.9999H6.33267L11.3903 18.3105L11.4577 18.3876C11.7683 18.7881 11.731 19.3675 11.3561 19.7246C10.9562 20.1053 10.3229 20.0893 9.94204 19.6894L3.27505 12.6894C2.90767 12.3033 2.90767 11.6966 3.27505 11.3105L9.94204 4.31049Z" fill="#32363E"/>
</svg>
