<svg width="24" height="24" viewBox="0 0 24 24" fill="none" xmlns="http://www.w3.org/2000/svg">
<path d="M10.9999 20V6.33305L5.6894 11.3907C5.28947 11.7715 4.65622 11.7564 4.27534 11.3565C3.89462 10.9565 3.91062 10.3233 4.31049 9.94242L11.3105 3.27543L11.3847 3.21098C11.7709 2.90922 12.3273 2.93087 12.6894 3.27543L19.6894 9.94242C20.0893 10.3233 20.1053 10.9565 19.7246 11.3565C19.3675 11.7314 18.7881 11.7687 18.3876 11.458L18.3105 11.3907L12.9999 6.33305V20C12.9999 20.5523 12.5522 21 11.9999 21C11.4477 21 10.9999 20.5523 10.9999 20Z" fill="#32363E"/>
</svg>
