<svg width="24" height="24" viewBox="0 0 24 24" fill="none" xmlns="http://www.w3.org/2000/svg">
<path d="M12.6436 4.27535C13.0186 3.91834 13.5986 3.91016 13.9834 4.2402L14.0576 4.31051L20.7246 11.3105C21.092 11.6966 21.092 12.3033 20.7246 12.6894L14.0576 19.6894L13.9834 19.7597C13.5986 20.0898 13.0186 20.0816 12.6436 19.7246C12.2436 19.3437 12.2285 18.7104 12.6094 18.3105L17.667 13H4C3.44772 13 3 12.5522 3 12C3 11.4477 3.44772 11 4 11H17.667L12.6094 5.68942L12.542 5.61227C12.2314 5.2118 12.2686 4.63242 12.6436 4.27535Z" fill="#32363E"/>
</svg>
