<svg width="24" height="24" viewBox="0 0 24 24" fill="none" xmlns="http://www.w3.org/2000/svg">
<path d="M5 12C5 8.10478 8.05449 5 11.7578 5C14.0432 5.00008 16.0736 6.17848 17.3008 8H16.1211L16.0186 8.00488C15.5145 8.05627 15.1211 8.48236 15.1211 9C15.1211 9.51764 15.5145 9.94373 16.0186 9.99512L16.1211 10H20C20.5523 10 21 9.55228 21 9V5C21 4.44772 20.5523 4 20 4C19.4477 4 19 4.44772 19 5V6.94043C17.4299 4.57146 14.7792 3.00008 11.7578 3C6.89235 3 3 7.05867 3 12C3 16.9413 6.89235 21 11.7578 21C15.5382 20.9999 18.7353 18.5448 19.9688 15.1367L20.082 14.8037L20.1074 14.7051C20.212 14.2089 19.9261 13.7042 19.4326 13.5469C18.9393 13.3896 18.4138 13.6356 18.2119 14.1006L18.1758 14.1963L18.0869 14.457C17.1209 17.1268 14.6379 18.9999 11.7578 19C8.05449 19 5 15.8952 5 12Z" fill="#32363E"/>
</svg>
