<svg width="24" height="24" viewBox="0 0 24 24" fill="none" xmlns="http://www.w3.org/2000/svg">
<path d="M17.25 11.0526H6.75V6.57895H17.25M15.9375 16.4211C15.5894 16.4211 15.2556 16.2797 15.0094 16.028C14.7633 15.7763 14.625 15.4349 14.625 15.0789C14.625 14.723 14.7633 14.3816 15.0094 14.1299C15.2556 13.8782 15.5894 13.7368 15.9375 13.7368C16.2856 13.7368 16.6194 13.8782 16.8656 14.1299C17.1117 14.3816 17.25 14.723 17.25 15.0789C17.25 15.4349 17.1117 15.7763 16.8656 16.028C16.6194 16.2797 16.2856 16.4211 15.9375 16.4211ZM8.0625 16.4211C7.7144 16.4211 7.38056 16.2797 7.13442 16.028C6.88828 15.7763 6.75 15.4349 6.75 15.0789C6.75 14.723 6.88828 14.3816 7.13442 14.1299C7.38056 13.8782 7.7144 13.7368 8.0625 13.7368C8.4106 13.7368 8.74444 13.8782 8.99058 14.1299C9.23672 14.3816 9.375 14.723 9.375 15.0789C9.375 15.4349 9.23672 15.7763 8.99058 16.028C8.74444 16.2797 8.4106 16.4211 8.0625 16.4211ZM5 15.5263C5 16.3137 5.34125 17.0205 5.875 17.5126V19.1053C5.875 19.3426 5.96719 19.5701 6.13128 19.7379C6.29538 19.9057 6.51794 20 6.75 20H7.625C7.85706 20 8.07962 19.9057 8.24372 19.7379C8.40781 19.5701 8.5 19.3426 8.5 19.1053V18.2105H15.5V19.1053C15.5 19.3426 15.5922 19.5701 15.7563 19.7379C15.9204 19.9057 16.1429 20 16.375 20H17.25C17.4821 20 17.7046 19.9057 17.8687 19.7379C18.0328 19.5701 18.125 19.3426 18.125 19.1053V17.5126C18.6587 17.0205 19 16.3137 19 15.5263V6.57895C19 3.44737 15.8675 3 12 3C8.1325 3 5 3.44737 5 6.57895V15.5263Z" fill="black"/>
</svg>
