<svg width="16" height="16" viewBox="0 0 16 16" fill="none" xmlns="http://www.w3.org/2000/svg">
<g clip-path="url(#clip0_1195_29472)">
<circle cx="8" cy="8" r="8" fill="black"/>
<path d="M11.6464 3.64645C11.8417 3.45119 12.1582 3.45119 12.3535 3.64645C12.5487 3.84171 12.5487 4.15822 12.3535 4.35348L8.70699 7.99996L12.3535 11.6464L12.3877 11.6845C12.5478 11.8809 12.5365 12.1704 12.3535 12.3535C12.1704 12.5365 11.8809 12.5478 11.6845 12.3877L11.6464 12.3535L7.99996 8.70699L4.35348 12.3535C4.15822 12.5487 3.84171 12.5487 3.64645 12.3535C3.45118 12.1582 3.45118 11.8417 3.64645 11.6464L7.29293 7.99996L3.64645 4.35348C3.45118 4.15822 3.45118 3.84171 3.64645 3.64645C3.84171 3.45118 4.15822 3.45118 4.35348 3.64645L7.99996 7.29293L11.6464 3.64645Z" fill="white"/>
</g>
<defs>
<clipPath id="clip0_1195_29472">
<rect width="16" height="16" fill="white"/>
</clipPath>
</defs>
</svg>
