<svg width="24" height="24" viewBox="0 0 24 24" fill="none" xmlns="http://www.w3.org/2000/svg">
<path d="M15.1201 2.24023C15.4758 2.24023 15.8052 2.42911 15.9844 2.73633L17.375 5.12012H19.2002C21.078 5.12012 22.6006 6.64274 22.6006 8.52051V18.3604C22.6004 20.238 21.0778 21.7598 19.2002 21.7598H4.80078C2.92313 21.7598 1.40059 20.238 1.40039 18.3604V8.52051C1.40039 6.64274 2.92301 5.12012 4.80078 5.12012H6.62598L8.0166 2.73633L8.09082 2.62695C8.27869 2.38501 8.56967 2.24023 8.88086 2.24023H15.1201ZM12 8C9.23858 8 7 10.2386 7 13C7 15.7614 9.23858 18 12 18C14.7614 18 17 15.7614 17 13C17 10.2386 14.7614 8 12 8Z" fill="#32363E"/>
<circle cx="12" cy="13" r="3" fill="#32363E"/>
</svg>
