<svg width="24" height="24" viewBox="0 0 24 24" fill="none" xmlns="http://www.w3.org/2000/svg">
<path d="M20.6002 8.52026C20.6002 7.74707 19.973 7.11987 19.1998 7.11987H16.8004C16.4447 7.11987 16.1154 6.931 15.9362 6.62378L14.5455 4.23999H9.45471L8.06409 6.62378C7.88488 6.931 7.5555 7.11987 7.19983 7.11987H4.80042C4.02722 7.11987 3.40002 7.74707 3.40002 8.52026V18.3601C3.40009 19.1333 4.02726 19.7595 4.80042 19.7595H19.1998C19.973 19.7595 20.6002 19.1333 20.6002 18.3601V8.52026ZM14.6002 12.8396C14.6 11.4038 13.4354 10.24 11.9996 10.24C10.564 10.2402 9.40024 11.404 9.40002 12.8396C9.40002 14.2754 10.5639 15.44 11.9996 15.4402C13.4356 15.4402 14.6002 14.2755 14.6002 12.8396ZM16.6002 12.8396C16.6002 15.3801 14.5401 17.4402 11.9996 17.4402C9.4593 17.44 7.40002 15.38 7.40002 12.8396C7.40024 10.2994 9.45943 8.2402 11.9996 8.23999C14.54 8.23999 16.6 10.2993 16.6002 12.8396ZM22.6002 18.3601C22.6002 20.2378 21.0776 21.7595 19.1998 21.7595H4.80042C2.92269 21.7595 1.40009 20.2378 1.40002 18.3601V8.52026C1.40002 6.64249 2.92265 5.11987 4.80042 5.11987H6.62561L8.01624 2.73608L8.09045 2.62671C8.27833 2.38476 8.5693 2.23999 8.88049 2.23999H15.1198C15.4754 2.23999 15.8048 2.42887 15.984 2.73608L17.3746 5.11987H19.1998C21.0776 5.11987 22.6002 6.6425 22.6002 8.52026V18.3601Z" fill="#32363E"/>
</svg>
