<svg width="24" height="24" viewBox="0 0 24 24" fill="none" xmlns="http://www.w3.org/2000/svg">
<path d="M12 2C17.5228 2 22 6.47715 22 12C22 17.5228 17.5228 22 12 22C6.47715 22 2 17.5228 2 12C2 6.47715 6.47715 2 12 2ZM12 4C7.58172 4 4 7.58172 4 12C4 16.4183 7.58172 20 12 20C16.4183 20 20 16.4183 20 12C20 7.58172 16.4183 4 12 4ZM15.2314 8.35938C15.585 7.93519 16.2164 7.87791 16.6406 8.23145C17.0648 8.58502 17.1221 9.21638 16.7686 9.64062L12.4697 14.7988C11.7168 15.7023 10.3502 15.7642 9.51855 14.9326L7.29297 12.707C6.90244 12.3165 6.90244 11.6835 7.29297 11.293C7.65908 10.9269 8.23809 10.9043 8.63086 11.2246L8.70703 11.293L10.9326 13.5186L15.2314 8.35938Z" fill="#32363E"/>
</svg>
