<svg width="24" height="24" viewBox="0 0 24 24" fill="none" xmlns="http://www.w3.org/2000/svg">
<path d="M12.6934 6.50703C12.3029 6.11651 12.3029 5.48349 12.6934 5.09297C13.084 4.70274 13.717 4.70254 14.1075 5.09297L19.7071 10.6936C20.0974 11.0841 20.0975 11.7172 19.7071 12.1076L14.1075 17.7072L14.0313 17.7756C13.6386 18.0961 13.0596 18.0732 12.6934 17.7072C12.3274 17.3412 12.304 16.7621 12.6241 16.3693L12.6934 16.2932L17.586 11.4006L12.6934 6.50703ZM4.29301 6.50703C3.90259 6.1165 3.90252 5.48346 4.29301 5.09297C4.68351 4.70258 5.31658 4.70258 5.70708 5.09297L11.3067 10.6936C11.4942 10.8811 11.5997 11.1354 11.5997 11.4006C11.5996 11.6657 11.4941 11.9202 11.3067 12.1076L5.70708 17.7072C5.31655 18.0978 4.68354 18.0978 4.29302 17.7072C3.90249 17.3167 3.90249 16.6837 4.29302 16.2932L9.18559 11.4006L4.29301 6.50703Z" fill="#32363E"/>
</svg>
