<svg width="24" height="24" viewBox="0 0 24 24" fill="none" xmlns="http://www.w3.org/2000/svg">
<path d="M12 3C16.9706 3 21 7.02944 21 12C21 16.9706 16.9706 21 12 21C7.02944 21 3 16.9706 3 12C3 7.02944 7.02944 3 12 3ZM12 7.4209C11.4477 7.4209 11 7.86861 11 8.4209V13.125C11 13.5553 11.2754 13.937 11.6836 14.0732L15.0586 15.1982C15.5824 15.3729 16.1485 15.0902 16.3232 14.5664C16.487 14.0751 16.2485 13.5468 15.7861 13.3389L15.6914 13.3018L13 12.4043V8.4209C13 7.86861 12.5523 7.4209 12 7.4209Z" fill="#E0E2E6"/>
</svg>
