<svg width="24" height="24" viewBox="0 0 24 24" fill="none" xmlns="http://www.w3.org/2000/svg">
<path d="M17.293 5.29302C17.6835 4.90249 18.3166 4.90249 18.7071 5.29302C19.0976 5.68354 19.0976 6.31655 18.7071 6.70708L13.4141 12L18.7071 17.293L18.7754 17.3692C19.0958 17.762 19.0732 18.341 18.7071 18.7071C18.341 19.0732 17.762 19.0958 17.3692 18.7754L17.293 18.7071L12 13.4141L6.70708 18.7071C6.31655 19.0976 5.68354 19.0976 5.29302 18.7071C4.90249 18.3166 4.90249 17.6835 5.29302 17.293L10.586 12L5.29302 6.70708C4.90249 6.31655 4.90249 5.68354 5.29302 5.29302C5.68354 4.90249 6.31655 4.90249 6.70708 5.29302L12 10.586L17.293 5.29302Z" fill="#32363E"/>
</svg>
