<svg width="24" height="24" viewBox="0 0 24 24" fill="none" xmlns="http://www.w3.org/2000/svg">
<path d="M15.293 7.29302C15.6835 6.90249 16.3166 6.90249 16.7071 7.29302C17.0976 7.68354 17.0976 8.31655 16.7071 8.70708L13.4141 12L16.7071 15.293L16.7754 15.3692C17.0958 15.762 17.0732 16.341 16.7071 16.7071C16.341 17.0732 15.762 17.0958 15.3692 16.7754L15.293 16.7071L12 13.4141L8.70708 16.7071C8.31655 17.0976 7.68354 17.0976 7.29301 16.7071C6.90249 16.3166 6.90249 15.6835 7.29301 15.293L10.586 12L7.29301 8.70708C6.90249 8.31655 6.90249 7.68354 7.29301 7.29302C7.68354 6.90249 8.31655 6.90249 8.70708 7.29302L12 10.586L15.293 7.29302Z" fill="#32363E"/>
</svg>
