<svg width="24" height="24" viewBox="0 0 24 24" fill="none" xmlns="http://www.w3.org/2000/svg">
<path d="M19.293 3.29302C19.6835 2.90249 20.3166 2.90249 20.7071 3.29302C21.0976 3.68354 21.0976 4.31655 20.7071 4.70708L13.4141 12L20.7071 19.293L20.7754 19.3692C21.0958 19.762 21.0732 20.341 20.7071 20.7071C20.341 21.0732 19.762 21.0958 19.3692 20.7754L19.293 20.7071L12 13.4141L4.70708 20.7071C4.31655 21.0976 3.68354 21.0976 3.29302 20.7071C2.90249 20.3166 2.90249 19.6835 3.29302 19.293L10.586 12L3.29302 4.70708C2.90249 4.31655 2.90249 3.68354 3.29302 3.29302C3.68354 2.90249 4.31655 2.90249 4.70708 3.29302L12 10.586L19.293 3.29302Z" fill="#32363E"/>
</svg>
