<svg width="24" height="24" viewBox="0 0 24 24" fill="none" xmlns="http://www.w3.org/2000/svg">
<path d="M17 3.33989C18.5202 4.21758 19.7826 5.47997 20.6603 7.00017C21.538 8.52038 22 10.2448 22 12.0002C22 13.7556 21.5379 15.48 20.6602 17.0002C19.7825 18.5204 18.5201 19.7828 16.9999 20.6605C15.4797 21.5381 13.7552 22.0002 11.9998 22.0001C10.2445 22.0001 8.52002 21.538 6.99984 20.6603C5.47965 19.7826 4.21729 18.5202 3.33963 17C2.46198 15.4797 1.99996 13.7553 2 11.9999L2.005 11.6759C2.061 9.94888 2.56355 8.26585 3.46364 6.79089C4.36373 5.31592 5.63065 4.09934 7.14089 3.25977C8.65113 2.42021 10.3531 1.98629 12.081 2.00033C13.8089 2.01437 15.5036 2.47589 17 3.33989ZM12 5.99989C11.7348 5.99989 11.4804 6.10525 11.2929 6.29279C11.1054 6.48032 11 6.73468 11 6.99989C10.2044 6.99989 9.44129 7.31596 8.87868 7.87857C8.31607 8.44118 8 9.20424 8 9.99989C8 10.7955 8.31607 11.5586 8.87868 12.1212C9.44129 12.6838 10.2044 12.9999 11 12.9999V14.9999C10.8342 15.0091 10.6686 14.9776 10.5177 14.9083C10.3667 14.8389 10.235 14.7337 10.134 14.6019L10.066 14.5009C9.92918 14.2802 9.71191 14.1215 9.46014 14.0581C9.20836 13.9948 8.94182 14.0318 8.71686 14.1614C8.49191 14.291 8.32619 14.5031 8.25474 14.7527C8.18329 15.0023 8.21171 15.2699 8.334 15.4989C8.58924 15.9416 8.95331 16.3117 9.3917 16.5742C9.8301 16.8367 10.3283 16.9829 10.839 16.9989H11C10.9998 17.244 11.0896 17.4806 11.2524 17.6639C11.4152 17.8471 11.6396 17.9642 11.883 17.9929L12 17.9999C12.2652 17.9999 12.5196 17.8945 12.7071 17.707C12.8946 17.5195 13 17.2651 13 16.9999L13.176 16.9949C13.9556 16.9498 14.6869 16.6026 15.2145 16.0269C15.7422 15.4512 16.0245 14.6924 16.0016 13.9119C15.9787 13.1313 15.6523 12.3904 15.0918 11.8467C14.5313 11.3029 13.7809 10.9991 13 10.9999V8.99989C13.358 8.98789 13.671 9.13989 13.866 9.39789L13.934 9.49889C14.0708 9.71954 14.2881 9.87833 14.5399 9.94168C14.7916 10.005 15.0582 9.96798 15.2831 9.83836C15.5081 9.70874 15.6738 9.49671 15.7453 9.24712C15.8167 8.99752 15.7883 8.72991 15.666 8.50089C15.4109 8.05804 15.0469 7.68771 14.6085 7.42502C14.1701 7.16233 13.6718 7.01599 13.161 6.99989H13C13 6.73468 12.8946 6.48032 12.7071 6.29279C12.5196 6.10525 12.2652 5.99989 12 5.99989ZM13 12.9999C13.2652 12.9999 13.5196 13.1052 13.7071 13.2928C13.8946 13.4803 14 13.7347 14 13.9999C14 14.2651 13.8946 14.5195 13.7071 14.707C13.5196 14.8945 13.2652 14.9999 13 14.9999V12.9999ZM11 8.99989V10.9999C10.7348 10.9999 10.4804 10.8945 10.2929 10.707C10.1054 10.5195 10 10.2651 10 9.99989C10 9.73468 10.1054 9.48032 10.2929 9.29279C10.4804 9.10525 10.7348 8.99989 11 8.99989Z" fill="#E0E2E6"/>
</svg>
