<svg width="24" height="24" viewBox="0 0 24 24" fill="none" xmlns="http://www.w3.org/2000/svg">
<path d="M11 4C11 3.44772 11.4477 3 12 3C12.5522 3 13 3.44772 13 4V17.666L18.3105 12.6094L18.3877 12.542C18.7881 12.2314 19.3675 12.2686 19.7246 12.6436C20.1053 13.0435 20.0893 13.6768 19.6894 14.0576L12.6894 20.7246C12.3033 21.092 11.6966 21.092 11.3105 20.7246L4.31051 14.0576L4.2402 13.9834C3.91016 13.5986 3.91834 13.0186 4.27535 12.6436C4.63242 12.2686 5.2118 12.2314 5.61227 12.542L5.68942 12.6094L11 17.666V4Z" fill="#32363E"/>
</svg>
