<svg width="24" height="24" viewBox="0 0 24 24" fill="none" xmlns="http://www.w3.org/2000/svg">
<path d="M21.504 13.5318C21.5036 12.7953 21.2749 12.0769 20.8495 11.4756C20.4241 10.8743 19.8227 10.4197 19.1283 10.1741V9.57228C19.1283 7.68203 18.3774 5.86919 17.0408 4.53258C15.7042 3.19597 13.8913 2.44507 12.0011 2.44507C10.1108 2.44507 8.29799 3.19597 6.96138 4.53258C5.62477 5.86919 4.87387 7.68203 4.87387 9.57228V10.1741C4.18052 10.4206 3.58048 10.8757 3.15616 11.4769C2.73183 12.0782 2.50403 12.796 2.50403 13.5318C2.50403 14.2677 2.73183 14.9855 3.15616 15.5867C3.58048 16.1879 4.18052 16.643 4.87387 16.8896C5.05331 16.9519 5.24485 16.9715 5.43321 16.9468C5.62157 16.922 5.80155 16.8536 5.95879 16.747C6.11254 16.6352 6.23781 16.4887 6.32448 16.3195C6.41115 16.1503 6.45678 15.9631 6.45769 15.773V9.57228C6.45769 8.10208 7.04173 6.6921 8.08131 5.65251C9.1209 4.61293 10.5309 4.02889 12.0011 4.02889C13.4713 4.02889 14.8813 4.61293 15.9208 5.65251C16.9604 6.6921 17.5445 8.10208 17.5445 9.57228V15.773C17.5465 15.9377 17.5827 16.1002 17.6509 16.2501C17.719 16.4001 17.8176 16.5343 17.9404 16.6441V17.0954C17.9404 18.2675 16.9189 18.6793 15.9606 18.6793H14.551C14.4118 18.4382 14.2115 18.238 13.9703 18.099C13.729 17.9599 13.4554 17.887 13.177 17.8874C12.8986 17.8878 12.6252 17.9616 12.3844 18.1014C12.1436 18.2411 11.9439 18.4419 11.8054 18.6834C11.6669 18.925 11.5946 19.1988 11.5956 19.4772C11.5967 19.7556 11.6711 20.0288 11.8114 20.2693C11.9517 20.5098 12.1529 20.7091 12.3947 20.847C12.6366 20.9849 12.9105 21.0567 13.1889 21.055C13.4653 21.0533 13.7365 20.9794 13.9755 20.8404C14.2144 20.7015 14.4128 20.5025 14.551 20.2631H15.9606C18.0592 20.2631 19.5242 18.9644 19.5242 17.0954V16.6995C20.115 16.4064 20.6129 15.9551 20.9624 15.3959C21.312 14.8366 21.4995 14.1913 21.504 13.5318Z" fill="#32363E"/>
<path d="M11.0109 15.7096C11.0109 15.9721 11.1152 16.2239 11.3008 16.4096C11.4865 16.5952 11.7383 16.6995 12.0008 16.6995C12.2633 16.6995 12.5151 16.5952 12.7007 16.4096C12.8864 16.2239 12.9907 15.9721 12.9907 15.7096C12.9907 15.4471 12.8864 15.1953 12.7007 15.0096C12.5151 14.824 12.2633 14.7197 12.0008 14.7197C11.7383 14.7197 11.4865 14.824 11.3008 15.0096C11.1152 15.1953 11.0109 15.4471 11.0109 15.7096ZM10.021 10.7601C10.2835 10.7601 10.5353 10.6559 10.721 10.4702C10.9066 10.2846 11.0109 10.0328 11.0109 9.77026C11.0115 9.59194 11.0603 9.4171 11.1521 9.26421C11.2439 9.11132 11.3752 8.98607 11.5323 8.90168C11.6894 8.81729 11.8664 8.77691 12.0445 8.78479C12.2227 8.79267 12.3954 8.84852 12.5444 8.94645C12.6934 9.04438 12.8132 9.18075 12.8912 9.34114C12.9691 9.50154 13.0022 9.68 12.9871 9.85768C12.972 10.0354 12.9091 10.2056 12.8052 10.3506C12.7013 10.4955 12.5602 10.6096 12.3967 10.681C11.9848 10.86 11.6342 11.1555 11.388 11.5312C11.1418 11.9068 11.0107 12.3462 11.0109 12.7954V13.2388C11.0109 13.5014 11.1152 13.7532 11.3008 13.9388C11.4865 14.1244 11.7383 14.2287 12.0008 14.2287C12.2633 14.2287 12.5151 14.1244 12.7007 13.9388C12.8864 13.7532 12.9907 13.5014 12.9907 13.2388V12.7954C12.9913 12.7315 13.0103 12.6691 13.0454 12.6158C13.0805 12.5624 13.1302 12.5203 13.1887 12.4944C13.6793 12.2803 14.1029 11.9376 14.4147 11.5025C14.7265 11.0673 14.9149 10.556 14.9599 10.0226C15.005 9.48923 14.905 8.95357 14.6706 8.47232C14.4362 7.99107 14.0761 7.58213 13.6284 7.28875C13.1806 6.99537 12.6619 6.82847 12.1271 6.8057C11.5923 6.78294 11.0612 6.90515 10.5902 7.15942C10.1191 7.41369 9.72557 7.79055 9.45112 8.25014C9.17668 8.70973 9.03156 9.23496 9.03112 9.77026C9.03112 10.0328 9.13541 10.2846 9.32105 10.4702C9.50669 10.6559 9.75847 10.7601 10.021 10.7601Z" fill="#32363E"/>
</svg>
