<svg width="24" height="24" viewBox="0 0 24 24" fill="none" xmlns="http://www.w3.org/2000/svg">
<path d="M5.5 17.5224V9.45127C5.5 9.21356 5.55324 8.98854 5.65971 8.7762C5.76619 8.56387 5.9129 8.38899 6.09986 8.25156L11.1002 4.46485C11.3621 4.26489 11.6611 4.16492 11.9972 4.16492C12.3334 4.16492 12.6342 4.26489 12.8998 4.46485L17.9001 8.25063C18.0877 8.38806 18.2344 8.56325 18.3403 8.7762C18.4468 8.98854 18.5 9.21356 18.5 9.45127V17.5224C18.5 17.7713 18.4075 17.9883 18.2224 18.1733C18.0373 18.3584 17.8203 18.451 17.5714 18.451H14.4291C14.2162 18.451 14.0379 18.3792 13.8943 18.2356C13.7507 18.0913 13.6789 17.913 13.6789 17.7007V13.2723C13.6789 13.06 13.607 12.882 13.4634 12.7384C13.3192 12.5942 13.1409 12.5221 12.9286 12.5221H11.0714C10.8591 12.5221 10.6811 12.5942 10.5375 12.7384C10.3933 12.882 10.3211 13.06 10.3211 13.2723V17.7016C10.3211 17.914 10.2493 18.0919 10.1057 18.2356C9.9621 18.3792 9.78412 18.451 9.57179 18.451H6.42857C6.17971 18.451 5.96274 18.3584 5.77764 18.1733C5.59255 17.9883 5.5 17.7713 5.5 17.5224Z" fill="white"/>
</svg>
