<svg width="24" height="24" viewBox="0 0 24 24" fill="none" xmlns="http://www.w3.org/2000/svg">
<path d="M18.3333 8.33333H16.3333V5.66667C16.3333 5.26667 16.0667 5 15.6667 5H8.33333C7.93333 5 7.66667 5.26667 7.66667 5.66667V8.33333H5.66667C5.26667 8.33333 5 8.6 5 9V18.3333C5 18.7333 5.26667 19 5.66667 19H18.3333C18.7333 19 19 18.7333 19 18.3333V9C19 8.6 18.7333 8.33333 18.3333 8.33333ZM9 16.3333H8.33333C7.93333 16.3333 7.66667 16.0667 7.66667 15.6667C7.66667 15.2667 7.93333 15 8.33333 15H9C9.4 15 9.66667 15.2667 9.66667 15.6667C9.66667 16.0667 9.4 16.3333 9 16.3333ZM9 13.6667H8.33333C7.93333 13.6667 7.66667 13.4 7.66667 13C7.66667 12.6 7.93333 12.3333 8.33333 12.3333H9C9.4 12.3333 9.66667 12.6 9.66667 13C9.66667 13.4 9.4 13.6667 9 13.6667ZM12.3333 16.3333H11.6667C11.2667 16.3333 11 16.0667 11 15.6667C11 15.2667 11.2667 15 11.6667 15H12.3333C12.7333 15 13 15.2667 13 15.6667C13 16.0667 12.7333 16.3333 12.3333 16.3333ZM12.3333 13.6667H11.6667C11.2667 13.6667 11 13.4 11 13C11 12.6 11.2667 12.3333 11.6667 12.3333H12.3333C12.7333 12.3333 13 12.6 13 13C13 13.4 12.7333 13.6667 12.3333 13.6667ZM13 10H12.6667V10.3333C12.6667 10.7333 12.4 11 12 11C11.6 11 11.3333 10.7333 11.3333 10.3333V10H11C10.6 10 10.3333 9.73333 10.3333 9.33333C10.3333 8.93333 10.6 8.66667 11 8.66667H11.3333V8.33333C11.3333 7.93333 11.6 7.66667 12 7.66667C12.4 7.66667 12.6667 7.93333 12.6667 8.33333V8.66667H13C13.4 8.66667 13.6667 8.93333 13.6667 9.33333C13.6667 9.73333 13.4 10 13 10ZM15.6667 16.3333H15C14.6 16.3333 14.3333 16.0667 14.3333 15.6667C14.3333 15.2667 14.6 15 15 15H15.6667C16.0667 15 16.3333 15.2667 16.3333 15.6667C16.3333 16.0667 16.0667 16.3333 15.6667 16.3333ZM15.6667 13.6667H15C14.6 13.6667 14.3333 13.4 14.3333 13C14.3333 12.6 14.6 12.3333 15 12.3333H15.6667C16.0667 12.3333 16.3333 12.6 16.3333 13C16.3333 13.4 16.0667 13.6667 15.6667 13.6667Z" fill="white"/>
</svg>
