<svg width="30" height="38" viewBox="0 0 30 38" fill="none" xmlns="http://www.w3.org/2000/svg">
<path d="M15 36.7778C15 36.7778 29 24.3333 29 15C29 7.26801 22.732 1 15 1C7.26801 1 1 7.26801 1 15C1 24.3333 15 36.7778 15 36.7778Z" fill="#00C89A" stroke="#00B68C"/>
<path d="M10.23 21.8164V19.4048L14.9537 15.4393C15.9234 14.6189 16.5138 14.016 16.5138 13.1023C16.5138 12.1078 15.8115 11.4987 14.8357 11.4987C13.8474 11.4987 13.1761 12.1203 13.1823 13.208H10C9.9938 10.554 11.9082 8.91309 14.8357 8.91309C17.8439 8.91309 19.7769 10.467 19.7769 12.8164C19.7769 14.2895 19.0373 15.5388 16.172 17.9504L14.8854 19.0567V19.1313H19.9137V21.8164H10.23Z" fill="white"/>
</svg>
