<svg width="30" height="38" viewBox="0 0 30 38" fill="none" xmlns="http://www.w3.org/2000/svg">
<path d="M15 36.7778C15 36.7778 29 24.3333 29 15C29 7.26801 22.732 1 15 1C7.26801 1 1 7.26801 1 15C1 24.3333 15 36.7778 15 36.7778Z" fill="#00C89A" stroke="#00B68C"/>
<path d="M15.1278 21.9035C12.1381 21.9035 10.0124 20.244 10 17.8883H13.375C13.3874 18.6528 14.1271 19.1998 15.1526 19.1998C16.1471 19.1998 16.8494 18.6218 16.837 17.8013C16.8494 16.9995 16.0477 16.4277 14.8791 16.4277H13.605V14.0969H14.8791C15.942 14.0969 16.6816 13.5313 16.6692 12.7295C16.6816 11.9588 16.0539 11.4118 15.1526 11.4118C14.1768 11.4118 13.4682 11.9712 13.4558 12.7668H10.2486C10.261 10.4546 12.3059 8.82617 15.1526 8.82617C17.9558 8.82617 19.9137 10.3863 19.9012 12.5119C19.9137 13.9415 18.8198 14.9173 17.3156 15.0914V15.1908C19.3419 15.4146 20.386 16.5209 20.3736 18.0872C20.386 20.3186 18.2106 21.9035 15.1278 21.9035Z" fill="white"/>
</svg>
