<svg width="30" height="44" viewBox="0 0 30 44" fill="none" xmlns="http://www.w3.org/2000/svg">
<ellipse cx="15" cy="37.1328" rx="10" ry="6" fill="black" fill-opacity="0.2"/>
<ellipse cx="15" cy="37.1332" rx="6" ry="3.6" fill="black" fill-opacity="0.4"/>
<path d="M15 36.6889C15 36.6889 29 24.2445 29 14.9111C29 7.17914 22.732 0.911133 15 0.911133C7.26801 0.911133 1 7.17914 1 14.9111C1 24.2445 15 36.6889 15 36.6889Z" fill="#F36975" stroke="#F04452"/>
<path d="M16.7842 10.6215V11.8853H18.9721V10.6215H20.4638V15.2748H15.3008V10.6215H16.7842ZM16.3698 17.1229V15.9668H23.4472V18.8674H17.8616V19.5594H23.7538V20.7362H16.3864V17.7942H21.9555V17.1229H16.3698ZM16.7842 14.1022H18.9721V13.0083H16.7842V14.1022ZM21.9472 15.5732V10.1367H23.4472V12.2168H24.8809V13.4268H23.4472V15.5732H21.9472Z" fill="white"/>
<path d="M14.8009 14.6867V15.7765H10.6904V16.4477H13.6365V19.0499H7.69454V19.6342H13.9141V20.7364H6.22768V18.0472H12.1614V17.5168H6.2194V16.4477H9.21111V15.7765H5.11719V14.6867H14.8009ZM5.4984 13.2986C7.62409 13.2074 8.70559 12.6977 9.01636 12.0803H6.02879V10.974H9.20282V10.1328H10.6862V10.974H13.881V12.0803H10.8686C11.1711 12.6977 12.2567 13.2074 14.4114 13.2986L13.9722 14.4008C11.9956 14.2972 10.62 13.7958 9.94454 12.9961C9.27326 13.7958 7.90172 14.2972 5.90862 14.4008L5.4984 13.2986Z" fill="white"/>
</svg>
