<svg width="24" height="24" viewBox="0 0 24 24" fill="none" xmlns="http://www.w3.org/2000/svg">
<path d="M12.1277 18.9034C9.13806 18.9034 7.01237 17.2439 6.99994 14.8882H10.3749C10.3874 15.6527 11.127 16.1997 12.1526 16.1997C13.147 16.1997 13.8494 15.6216 13.837 14.8012C13.8494 13.9994 13.0476 13.4276 11.8791 13.4276H10.6049V11.0968H11.8791C12.9419 11.0968 13.6816 10.5312 13.6691 9.72937C13.6816 8.95865 13.0538 8.41168 12.1526 8.41168C11.1767 8.41168 10.4682 8.97108 10.4557 9.76666H7.24856C7.26099 7.4545 9.30588 5.82605 12.1526 5.82605C14.9557 5.82605 16.9136 7.38613 16.9012 9.51182C16.9136 10.9414 15.8197 11.9172 14.3155 12.0912V12.1907C16.3418 12.4144 17.386 13.5208 17.3736 15.0871C17.386 17.3185 15.2106 18.9034 12.1277 18.9034Z" fill="white"/>
</svg>
