<svg width="24" height="24" viewBox="0 0 24 24" fill="none" xmlns="http://www.w3.org/2000/svg">
<path d="M6.03566 2.03076C6.7247 2.03076 7.20166 2.43449 7.41066 2.64307C7.41294 2.64534 7.41522 2.64763 7.4175 2.6499C7.70953 2.92312 7.98461 3.20172 8.26027 3.48584C8.32791 3.55551 8.39718 3.62565 8.47023 3.69971C8.53919 3.7696 8.61126 3.84359 8.6841 3.91846L9.9341 5.16553C10.2717 5.50246 10.5922 5.97554 10.5923 6.58154C10.5923 7.18772 10.2718 7.66153 9.9341 7.99854C9.81886 8.11355 9.66794 8.26883 9.52785 8.40381C9.44837 8.48507 9.39476 8.54028 9.36574 8.56982C9.33953 8.59651 9.29168 8.64591 9.23195 8.69482C9.21952 8.705 9.20894 8.71316 9.20363 8.71729C9.19522 8.72382 9.19774 8.72208 9.19387 8.7251C9.19246 8.7262 9.18889 8.72943 9.18117 8.73584C9.1621 8.75169 9.12025 8.78625 9.03664 8.86084C9.03784 8.86507 9.03907 8.86963 9.04055 8.87451C9.31793 9.53779 9.71377 10.1885 10.356 11.0044C10.359 11.008 10.3628 11.0115 10.3657 11.0151C11.5716 12.4975 12.825 13.6312 14.19 14.4927L14.1909 14.4937C14.3292 14.5812 14.4774 14.6561 14.6665 14.7505C14.8105 14.8223 14.9938 14.9139 15.1636 15.0161C15.1655 15.0142 15.1688 15.0128 15.1714 15.0103L16.0689 14.1147C16.2695 13.9145 16.7636 13.4792 17.4663 13.479C18.1425 13.479 18.6155 13.875 18.8413 14.1147L21.3618 16.6294L21.4693 16.7456C21.9675 17.3392 21.8853 18.0813 21.8198 18.4204C21.7774 18.6401 21.7148 18.8303 21.6655 18.9624C21.6404 19.0298 21.618 19.0862 21.6001 19.1274C21.5912 19.148 21.5828 19.1649 21.5767 19.1782C21.5736 19.1849 21.5711 19.191 21.5689 19.1958C21.5678 19.198 21.5668 19.1999 21.5659 19.2017C21.5655 19.2026 21.5644 19.2038 21.564 19.2046V19.2065C21.5391 19.258 21.5093 19.3077 21.4761 19.354L21.3638 19.4849C21.3633 19.4854 21.3619 19.4868 21.3609 19.4878C21.3588 19.4899 21.3551 19.4926 21.3511 19.4966C21.3428 19.5048 21.3307 19.5172 21.315 19.5327C21.2832 19.564 21.2371 19.6092 21.1812 19.6646C21.0692 19.7754 20.9169 19.9264 20.7564 20.0874C20.4199 20.425 20.0924 20.7613 19.982 20.8911C19.9718 20.903 19.9614 20.9148 19.9507 20.9263C19.2908 21.6305 18.4771 21.9692 17.4986 21.9692C17.4365 21.9692 17.3296 21.9695 17.2222 21.9624C15.6626 21.8623 14.2555 21.2602 13.2857 20.7974L13.2808 20.7954C10.559 19.4804 8.17034 17.6145 6.18996 15.2554L6.18703 15.2515C4.56954 13.3059 3.46074 11.4732 2.72219 9.48291L2.56301 9.03271C2.21928 8.00049 2.07484 7.09119 2.14895 6.18896L2.14992 6.18604C2.21582 5.41655 2.52425 4.752 3.0718 4.20557L4.63332 2.64697L4.65578 2.62549C4.99478 2.30789 5.46557 2.0308 6.03566 2.03076ZM4.48391 5.62158C4.27242 5.83272 4.16842 6.05439 4.14211 6.35205C4.096 6.91349 4.17583 7.54609 4.46047 8.40088L4.59523 8.78174L4.59621 8.78467C5.2403 10.5214 6.21885 12.1604 7.72219 13.9692L8.06398 14.3667C9.79484 16.3246 11.8403 17.8776 14.147 18.9927L14.5025 19.1587C15.3528 19.5434 16.3373 19.9025 17.3521 19.9673H17.354C17.3837 19.9693 17.4234 19.9692 17.4986 19.9692C17.9487 19.9692 18.2256 19.8419 18.4907 19.5591C18.6769 19.3468 19.044 18.9726 19.3404 18.6753C19.5047 18.5104 19.6599 18.3565 19.7739 18.2437C19.7866 18.2311 19.7985 18.218 19.8101 18.2065C19.8271 18.1552 19.8449 18.0979 19.856 18.0405C19.8618 18.0105 19.8637 17.9839 19.8657 17.9614L17.4546 15.5552L16.5835 16.4263C16.4871 16.5226 15.9945 17.0337 15.1812 17.0337C14.8555 17.0337 14.5572 16.9514 14.2818 16.814C14.2485 16.7974 14.2215 16.782 14.2046 16.772L14.1773 16.7554C14.1851 16.76 14.2025 16.7699 14.2261 16.7817C14.1989 16.7681 14.1719 16.7538 14.146 16.7378C14.0599 16.6845 13.9485 16.6271 13.773 16.5396C13.5958 16.4511 13.3587 16.3341 13.1216 16.1841C11.5472 15.1902 10.1356 13.9016 8.81398 12.2769C8.80975 12.2717 8.80445 12.2665 8.80031 12.2612C8.06631 11.3311 7.55266 10.5105 7.18215 9.61475C7.17326 9.59325 7.1651 9.57138 7.15773 9.54932C7.15546 9.54249 7.1522 9.53563 7.14992 9.52881L7.1382 9.49365C7.08226 9.31687 6.99465 8.9942 7.03957 8.60693C7.08553 8.21162 7.25983 7.83009 7.57766 7.49463C7.60313 7.46506 7.62854 7.44288 7.64797 7.42432L7.64699 7.42334C7.66204 7.40833 7.67549 7.39559 7.68605 7.38623L7.90285 7.19678C7.91775 7.18441 7.93057 7.17362 7.94191 7.16455C7.97428 7.13156 8.02153 7.08413 8.11965 6.98389L8.52102 6.58252L7.27102 5.3335C7.26744 5.32993 7.26379 5.32638 7.26027 5.32275C7.19013 5.25056 7.11953 5.1791 7.04641 5.10498C6.97417 5.03176 6.89896 4.95586 6.82473 4.87939C6.54753 4.5937 6.29644 4.33849 6.03664 4.09619C6.03242 4.09226 6.0281 4.0875 6.02395 4.0835L4.48391 5.62158ZM15.23 15.0552C15.2285 15.0542 15.2265 15.0527 15.2241 15.0513C15.2228 15.0505 15.2212 15.0494 15.2193 15.0483C15.2245 15.0516 15.2287 15.0543 15.23 15.0552ZM9.06594 8.82666C9.08063 8.81078 9.09638 8.79259 9.11281 8.77197C9.0979 8.79087 9.0822 8.80887 9.06594 8.82666ZM9.14699 8.729C9.17315 8.69216 9.20008 8.65007 9.22414 8.60205C9.20188 8.64648 9.1755 8.6885 9.14699 8.729Z" fill="#32363E"/>
</svg>
