<svg width="24" height="24" viewBox="0 0 24 24" fill="none" xmlns="http://www.w3.org/2000/svg">
<path d="M6.03579 2.03027C6.72471 2.03036 7.2018 2.43402 7.41079 2.64258C7.41303 2.64482 7.41538 2.64718 7.41762 2.64941C7.70961 2.9226 7.98476 3.20127 8.2604 3.48535C8.328 3.55499 8.39734 3.6252 8.47036 3.69922C8.53928 3.76908 8.61142 3.84314 8.68422 3.91797L9.93422 5.16504C10.2718 5.50197 10.5923 5.97512 10.5924 6.58105C10.5924 7.18717 10.2719 7.66105 9.93422 7.99805C9.81901 8.11303 9.66803 8.26836 9.52797 8.40332C9.44859 8.48449 9.39491 8.53977 9.36586 8.56934C9.33967 8.596 9.29174 8.64546 9.23208 8.69434C9.21974 8.70443 9.20911 8.71264 9.20375 8.7168C9.19543 8.72326 9.19767 8.72173 9.19399 8.72461C9.19259 8.72571 9.18892 8.72901 9.18129 8.73535C9.16223 8.75119 9.12029 8.78583 9.03676 8.86035C9.03796 8.86456 9.0392 8.86916 9.04067 8.87402C9.31805 9.53728 9.71391 10.1881 10.3561 11.0039C10.3591 11.0075 10.3629 11.011 10.3659 11.0146C11.5717 12.497 12.8251 13.6307 14.1901 14.4922L14.1911 14.4932C14.3293 14.5806 14.4776 14.6557 14.6666 14.75C14.8106 14.8218 14.994 14.9134 15.1637 15.0156C15.1656 15.0138 15.169 15.0123 15.1715 15.0098L16.069 14.1143C16.2697 13.9139 16.7639 13.4787 17.4665 13.4785C18.1425 13.4786 18.6156 13.8745 18.8414 14.1143L21.362 16.6289L21.4694 16.7451C21.9675 17.3387 21.8855 18.0808 21.82 18.4199C21.7775 18.6395 21.7149 18.8298 21.6657 18.9619C21.6405 19.0293 21.6182 19.0857 21.6002 19.127C21.5913 19.1475 21.5829 19.1644 21.5768 19.1777C21.5737 19.1844 21.5712 19.1906 21.569 19.1953C21.568 19.1975 21.5669 19.1994 21.5661 19.2012C21.5656 19.2021 21.5645 19.2033 21.5641 19.2041V19.2061C21.5392 19.2575 21.5094 19.3072 21.4762 19.3535L21.3639 19.4844C21.3634 19.4849 21.362 19.4863 21.361 19.4873C21.3589 19.4894 21.3552 19.4922 21.3512 19.4961C21.3429 19.5043 21.3308 19.5167 21.3151 19.5322C21.2833 19.5635 21.2372 19.6087 21.1813 19.6641C21.0693 19.7749 20.917 19.9259 20.7565 20.0869C20.4201 20.4244 20.0926 20.7608 19.9821 20.8906C19.9719 20.9025 19.9615 20.9144 19.9508 20.9258C19.291 21.6299 18.4771 21.9687 17.4987 21.9688C17.4366 21.9688 17.3297 21.969 17.2223 21.9619C15.6628 21.8619 14.2556 21.2597 13.2858 20.7969L13.2809 20.7949C10.5591 19.48 8.17044 17.614 6.19008 15.2549L6.18715 15.251C4.56969 13.3055 3.46086 11.4727 2.72231 9.48242L2.56313 9.03223C2.2194 8 2.07496 7.0907 2.14907 6.18848L2.15004 6.18555C2.21595 5.41607 2.52437 4.75151 3.07192 4.20508L4.63344 2.64648L4.6559 2.625C4.99489 2.30745 5.46575 2.03031 6.03579 2.03027Z" fill="#E0E2E6"/>
</svg>
