<svg width="24" height="24" viewBox="0 0 24 24" fill="none" xmlns="http://www.w3.org/2000/svg">
<g filter="url(#filter0_g_959_37720)">
<path d="M19.184 7.80505L16.219 4.83805C14.192 2.80805 13.179 1.79505 12.09 2.03505C11.001 2.27505 10.509 3.62205 9.522 6.31505L8.854 8.13805C8.591 8.85605 8.459 9.21505 8.222 9.49305C8.11605 9.61805 7.99515 9.72955 7.862 9.82505C7.566 10.0381 7.198 10.1391 6.462 10.3421C4.802 10.8001 3.971 11.0291 3.658 11.5721C3.52269 11.8071 3.45229 12.0739 3.454 12.3451C3.458 12.9721 4.067 13.5811 5.284 14.8001L6.7 16.2161L2.224 20.6961C2.08761 20.8406 2.01293 21.0327 2.01583 21.2314C2.01873 21.4302 2.09897 21.62 2.23952 21.7605C2.38007 21.9011 2.56986 21.9813 2.76861 21.9842C2.96736 21.9871 3.15941 21.9124 3.304 21.7761L7.779 17.2961L9.245 18.7641C10.471 19.9901 11.084 20.6041 11.715 20.6041C11.98 20.6041 12.241 20.5361 12.472 20.4041C13.02 20.0911 13.25 19.2551 13.711 17.5821C13.913 16.8471 14.014 16.4801 14.226 16.1831C14.3193 16.0537 14.4267 15.9364 14.548 15.8311C14.823 15.5931 15.18 15.4591 15.893 15.1911L17.737 14.4981C20.401 13.4981 21.733 12.9971 21.967 11.9121C22.202 10.8261 21.197 9.81905 19.184 7.80505Z" fill="#00C89A"/>
<path d="M12.1974 2.5238C12.5315 2.45018 12.9062 2.54228 13.505 2.98669C14.1108 3.43628 14.8402 4.1651 15.8654 5.19177L18.8302 8.15857C19.8484 9.17726 20.5706 9.90197 21.0167 10.5043C21.4573 11.0991 21.5508 11.4721 21.4786 11.806V11.807C21.4067 12.14 21.1678 12.441 20.5206 12.8002C19.8656 13.1637 18.9088 13.524 17.5616 14.0297H17.5607L15.7169 14.723C15.0395 14.9777 14.5793 15.1424 14.2208 15.4525L14.2198 15.4535C14.0698 15.5838 13.9364 15.7294 13.8204 15.89L13.8195 15.8929C13.5438 16.2792 13.4208 16.7502 13.2286 17.4496C12.9949 18.2979 12.8308 18.8922 12.6603 19.3168C12.4894 19.7424 12.3484 19.8989 12.2238 19.9701C12.0696 20.0581 11.8944 20.1039 11.715 20.1039C11.5721 20.1039 11.3734 20.0378 11.0148 19.7523C10.8359 19.6099 10.6369 19.4305 10.4054 19.2084L9.59875 18.4105L8.13293 16.9427L7.77942 16.5883L7.42493 16.9427L2.95618 21.4154C2.90671 21.4601 2.84234 21.4857 2.77551 21.4847C2.70698 21.4836 2.64138 21.4551 2.5929 21.4066C2.5445 21.3581 2.51675 21.2925 2.51575 21.224C2.51479 21.1554 2.53994 21.0884 2.58704 21.0385L7.05383 16.5697L7.40735 16.2162L5.63782 14.4467C5.02078 13.8286 4.5889 13.395 4.30579 13.0394C4.02222 12.6832 3.95523 12.4848 3.95422 12.3422C3.95336 12.2052 3.97962 12.0696 4.03137 11.9437L4.09094 11.8217C4.16205 11.6983 4.31836 11.5588 4.74133 11.389C5.16323 11.2197 5.75307 11.0559 6.59485 10.8236C7.29348 10.6309 7.76671 10.508 8.15247 10.2308L8.15344 10.2318C8.31986 10.1124 8.47024 9.97202 8.60266 9.8158C8.91085 9.45377 9.07335 8.9925 9.32336 8.30994L9.99133 6.48669C10.4905 5.12481 10.8466 4.15759 11.2072 3.49451C11.5636 2.83907 11.8638 2.59744 12.1974 2.5238Z" stroke="#00C89A"/>
</g>
<defs>
<filter id="filter0_g_959_37720" x="1.0289" y="1.01352" width="21.9585" height="21.9576" filterUnits="userSpaceOnUse" color-interpolation-filters="sRGB">
<feFlood flood-opacity="0" result="BackgroundImageFix"/>
<feBlend mode="normal" in="SourceGraphic" in2="BackgroundImageFix" result="shape"/>
<feTurbulence type="fractalNoise" baseFrequency="4.0533328056335449 4.0533328056335449" numOctaves="3" seed="4690" />
<feDisplacementMap in="shape" scale="1.9736844301223755" xChannelSelector="R" yChannelSelector="G" result="displacedImage" width="100%" height="100%" />
<feMerge result="effect1_texture_959_37720">
<feMergeNode in="displacedImage"/>
</feMerge>
</filter>
</defs>
</svg>
