<svg width="24" height="24" viewBox="0 0 24 24" fill="none" xmlns="http://www.w3.org/2000/svg">
<path d="M12 12C16.9704 12 20.9997 13.4821 21 17.7773V21C21 21.5523 20.5523 22 20 22H4C3.44772 22 3 21.5523 3 21V17.7773C3.00027 13.4821 7.0296 12 12 12ZM12 14C9.65384 14 7.8035 14.36 6.60938 15.0254C5.56344 15.6083 5.00012 16.4121 5 17.7773V20H19V17.7773C18.9999 16.4121 18.4366 15.6083 17.3906 15.0254C16.1965 14.36 14.3462 14 12 14ZM12 3C14.2091 3 16 4.79086 16 7C16 9.20914 14.2091 11 12 11C9.79086 11 8 9.20914 8 7C8 4.79086 9.79086 3 12 3ZM12 5C10.8954 5 10 5.89543 10 7C10 8.10457 10.8954 9 12 9C13.1046 9 14 8.10457 14 7C14 5.89543 13.1046 5 12 5Z" fill="#32363E"/>
</svg>
