<svg width="24" height="24" viewBox="0 0 24 24" fill="none" xmlns="http://www.w3.org/2000/svg">
<circle cx="12" cy="12" r="10" fill="#D2D5DA"/>
<circle cx="9" cy="10" r="1" fill="#A0A5B1"/>
<circle cx="15" cy="10" r="1" fill="#A0A5B1"/>
<path d="M7 14C7 13.4477 7.44772 13 8 13C8.55228 13 9 13.4477 9 14C9 14.4242 9.08682 14.6035 9.13574 14.6738C9.17722 14.7333 9.25464 14.8074 9.4668 14.873C9.69805 14.9446 10.0218 14.9849 10.4746 14.999C10.9335 15.0133 11.4115 15 12 15C12.5885 15 13.0665 15.0133 13.5254 14.999C13.9782 14.9849 14.3019 14.9446 14.5332 14.873C14.7454 14.8074 14.8228 14.7333 14.8643 14.6738C14.9132 14.6035 15 14.4242 15 14C15 13.4477 15.4477 13 16 13C16.5523 13 17 13.4477 17 14C17 14.6804 16.8627 15.3037 16.5068 15.8154C16.1434 16.338 15.6351 16.6261 15.124 16.7842C14.6314 16.9365 14.0921 16.9823 13.5879 16.998C13.0899 17.0136 12.5158 17 12 17C11.4842 17 10.9101 17.0136 10.4121 16.998C9.90785 16.9823 9.36858 16.9365 8.87598 16.7842C8.36491 16.6261 7.85656 16.338 7.49316 15.8154C7.13731 15.3037 7 14.6804 7 14Z" fill="#A0A5B1"/>
</svg>
