<svg width="24" height="24" viewBox="0 0 24 24" fill="none" xmlns="http://www.w3.org/2000/svg">
<path d="M11.8379 3C16.7186 3.00038 20.6747 6.95825 20.6748 11.8398C20.6748 13.9436 19.9387 15.8748 18.7119 17.3926L21.4902 20.0811L21.5596 20.1562C21.8862 20.5435 21.8733 21.123 21.5137 21.4951C21.1537 21.8671 20.5747 21.8994 20.1768 21.5859L20.0996 21.5186L17.2861 18.7959C15.7847 19.9743 13.8944 20.6795 11.8379 20.6797C6.95676 20.6797 3 16.7217 3 11.8398C3.00008 6.95802 6.95681 3 11.8379 3ZM11.8379 5C8.06198 5 5.00008 8.06199 5 11.8398C5 15.6178 8.06193 18.6797 11.8379 18.6797C15.6135 18.6793 18.6748 15.6175 18.6748 11.8398C18.6747 8.06222 15.6135 5.00038 11.8379 5Z" fill="#32363E"/>
</svg>
