<svg width="24" height="24" viewBox="0 0 24 24" fill="none" xmlns="http://www.w3.org/2000/svg">
<rect x="14.2222" y="15.3334" width="7.77778" height="6.66667" rx="2" fill="#55C887"/>
<path d="M15.0506 21.9999H16.4444L18.6666 17.5555L15.3333 9.77772L9.77775 4.22217L4.5253 9.47462C3.74425 10.2557 3.74425 11.522 4.5253 12.3031L13.6364 21.4142C14.0115 21.7892 14.5202 21.9999 15.0506 21.9999Z" fill="#D2D5DA"/>
<path d="M11.2929 2.70711L9.37373 4.62623C8.98321 5.01675 8.98321 5.64992 9.37373 6.04044L13.5151 10.1818C13.9056 10.5723 14.5388 10.5723 14.9293 10.1818L16.8484 8.26266C17.2389 7.87214 17.2389 7.23897 16.8484 6.84845L12.7071 2.70711C12.3165 2.31658 11.6834 2.31658 11.2929 2.70711Z" fill="#D2D5DA"/>
<path d="M15.3334 18.6667C15.7778 16.8889 17 15.7037 17.5556 15.3334H20C21.1046 15.3334 22 16.2288 22 17.3334V18.6667H15.3334Z" fill="#F3F5F7"/>
<path d="M14.7475 18.0808L5.33331 8.66663L4.5253 9.47463C3.74425 10.2557 3.74425 11.522 4.5253 12.3031L13.9293 21.7071C14.1168 21.8946 14.3712 22 14.6364 22H20C21.1045 22 22 21.1045 22 20V18.6666H16.1617C15.6313 18.6666 15.1226 18.4559 14.7475 18.0808Z" fill="#C1C5CD"/>
<rect x="2" y="20.8889" width="20" height="1.11111" rx="0.555556" fill="#A0A5B1"/>
<path d="M11.596 4.6262L13.1111 3.11108L16.4445 6.44442L14.9294 7.95953C14.5388 8.35006 13.9057 8.35006 13.5151 7.95953L11.596 6.04041C11.2055 5.64989 11.2055 5.01672 11.596 4.6262Z" fill="#F3F5F7"/>
</svg>
