<svg width="24" height="25" viewBox="0 0 24 25" fill="none" xmlns="http://www.w3.org/2000/svg">
<path opacity="0.3" d="M24 12.6666C24 19.294 18.6274 24.6666 12 24.6666C5.37258 24.6666 0 19.294 0 12.6666C0 6.03921 5.37258 0.666626 12 0.666626C18.6274 0.666626 24 6.03921 24 12.6666ZM3.7418 12.6666C3.7418 17.2275 7.43912 20.9248 12 20.9248C16.5609 20.9248 20.2582 17.2275 20.2582 12.6666C20.2582 8.10575 16.5609 4.40843 12 4.40843C7.43912 4.40843 3.7418 8.10575 3.7418 12.6666Z" fill="white"/>
<path d="M22.1291 12.6666C23.1624 12.6666 24.0149 11.824 23.8544 10.8033C23.7075 9.86867 23.4503 8.95254 23.0866 8.07442C22.4835 6.61852 21.5996 5.29565 20.4853 4.18134C19.371 3.06704 18.0481 2.18313 16.5922 1.58007C15.7141 1.21635 14.798 0.959085 13.8633 0.812177C12.8426 0.651732 12 1.50426 12 2.53753C12 3.5708 12.8481 4.38736 13.8549 4.61945C14.2998 4.722 14.7365 4.86151 15.1603 5.03705C16.1622 5.45206 17.0726 6.06035 17.8394 6.8272C18.6063 7.59404 19.2146 8.50442 19.6296 9.50635C19.8051 9.93014 19.9446 10.3668 20.0472 10.8117C20.2793 11.8185 21.0958 12.6666 22.1291 12.6666Z" fill="white"/>
</svg>
