<svg width="21" height="26" viewBox="0 0 21 26" fill="none" xmlns="http://www.w3.org/2000/svg">
<path d="M10.5007 25.2227C10.5007 25.2227 19.892 16.8748 19.892 10.614C19.892 5.42729 15.6874 1.22266 10.5007 1.22266C5.31401 1.22266 1.10938 5.42729 1.10938 10.614C1.10938 16.8748 10.5007 25.2227 10.5007 25.2227Z" fill="#F36975" stroke="#F04452" stroke-width="0.670808"/>
<path d="M11.8467 7.58791V8.43568H14.0346V7.58791H15.5263V10.7094H10.3633V7.58791H11.8467ZM11.4323 11.9491V11.1736H18.5097V13.1193H12.9241V13.5835H18.8163V14.3729H11.4489V12.3994H17.018V11.9491H11.4323ZM11.8467 9.92276H14.0346V9.18895H11.8467V9.92276ZM17.0097 10.9095V7.2627H18.5097V8.65805H19.9434V9.46969H18.5097V10.9095H17.0097Z" fill="white"/>
<path d="M9.86144 10.3145V11.0456H5.75094V11.4959H8.69707V13.2414H2.75508V13.6334H8.9747V14.3727H1.28823V12.5688H7.22193V12.213H1.27994V11.4959H4.27166V11.0456H0.177734V10.3145H9.86144ZM0.55895 9.38337C2.68464 9.32222 3.76613 8.98033 4.07691 8.56617H1.08934V7.82402H4.26337V7.25977H5.7468V7.82402H8.94155V8.56617H5.92912C6.2316 8.98033 7.31724 9.32222 9.47193 9.38337L9.03271 10.1227C7.05619 10.0533 5.6805 9.71692 5.00508 9.18046C4.33381 9.71692 2.96227 10.0533 0.969171 10.1227L0.55895 9.38337Z" fill="white"/>
</svg>
