<svg width="24" height="24" viewBox="0 0 24 24" fill="none" xmlns="http://www.w3.org/2000/svg">
<path d="M19.4057 16.9699V5.80188C19.4057 4.58114 18.4919 3.56269 17.2153 3.45805C15.7504 3.33249 13.7903 3.19995 11.9975 3.19995C10.2048 3.19995 8.27946 3.33249 6.78667 3.45805C5.51012 3.56966 4.60328 4.58811 4.60328 5.80886V16.9699C4.60328 17.2908 4.87533 17.5489 5.21016 17.5489H7.47726L4.76372 19.6137C4.51957 19.7951 4.47772 20.1369 4.65908 20.3811L4.81255 20.5834C4.99392 20.8275 5.33573 20.8694 5.57987 20.688L6.91921 19.6626H17.0828L18.4221 20.688C18.6663 20.8694 19.0081 20.8205 19.1894 20.5834L19.3429 20.3811C19.5243 20.1369 19.4754 19.7951 19.2383 19.6137L16.5247 17.5489H18.7988C19.1336 17.5489 19.4057 17.2908 19.4057 16.9699ZM6.61925 14.1727C6.61925 13.517 7.15638 12.9799 7.81209 12.9799C8.46781 12.9799 9.00493 13.517 9.00493 14.1727C9.00493 14.8284 8.46781 15.3655 7.81209 15.3655C7.15638 15.3655 6.61925 14.8284 6.61925 14.1727ZM8.4399 18.5116L9.69553 17.5559H14.2855L15.5411 18.5116H8.4399ZM16.1829 15.3655C15.5272 15.3655 14.9901 14.8284 14.9901 14.1727C14.9901 13.517 15.5272 12.9799 16.1829 12.9799C16.8386 12.9799 17.3758 13.517 17.3758 14.1727C17.3758 14.8284 16.8386 15.3655 16.1829 15.3655ZM17.6827 10.4547C17.6827 10.5942 17.5362 10.7058 17.3618 10.7058H6.64018C6.45881 10.7058 6.3193 10.5942 6.3193 10.4547V5.93442C6.3193 5.43915 7.05872 5.0206 8.02834 4.97875C9.16538 4.92992 10.6861 4.87411 11.9975 4.87411C13.3089 4.87411 14.8575 4.92992 15.9736 4.97875C16.9433 5.0206 17.6827 5.43915 17.6827 5.93442V10.4616V10.4547Z" fill="black"/>
</svg>
