<svg width="196" height="84" viewBox="0 0 196 84" fill="none" xmlns="http://www.w3.org/2000/svg">
<g filter="url(#filter0_g_1099_41352)">
<path d="M65.157 29.3335C64.4189 29.3335 63.7138 29.6394 63.2096 30.1784L45.386 49.2313C44.9238 49.7253 44.6667 50.3765 44.6667 51.053V66.0002C44.6667 70.4184 48.2484 74.0002 52.6667 74.0002H144.667C149.085 74.0002 152.667 70.4184 152.667 66.0002V52.1122C152.667 50.8747 151.815 49.7999 150.611 49.5164L131.244 44.9595C130.457 44.7744 129.797 44.243 129.449 43.5142L123.392 30.8496C122.949 29.9232 122.013 29.3335 120.986 29.3335H65.157Z" fill="#FFE261"/>
<path d="M106.458 48.7482V56.6669H104.818V48.7482H106.458Z" fill="#797979"/>
<path d="M98.6589 48.7482L100.278 51.4716H100.332L101.962 48.7482H103.821L101.404 52.7075L103.876 56.6669H101.973L100.332 53.9435H100.278L98.637 56.6669H96.7448L99.2276 52.7075L96.7886 48.7482H98.6589Z" fill="#797979"/>
<path d="M90.4229 56.6669H88.6511L91.3964 48.7482H93.5073L96.2417 56.6669H94.4808L93.8901 54.8404H91.0245L90.4229 56.6669ZM91.4401 53.5607H93.4745L92.4792 50.531H92.4245L91.4401 53.5607Z" fill="#797979"/>
<path d="M82.5703 50.1044V48.7482H89.0563V50.1044H86.6281V56.6669H84.9984V50.1044H82.5703Z" fill="#797979"/>
<path d="M152.667 66.6667H44.6667C44.6667 70.7168 47.9499 74.0001 52 74.0001H145.333C149.383 74.0001 152.667 70.7168 152.667 66.6667Z" fill="#FECE12"/>
<path d="M101.194 24.6463C100.883 23.479 99.8255 22.6667 98.6174 22.6667H83.3816C82.1734 22.6667 81.1162 23.479 80.8049 24.6463L79.5605 29.313C79.109 31.0059 80.385 32.6667 82.1371 32.6667H99.8618C101.614 32.6667 102.89 31.0059 102.438 29.313L101.194 24.6463Z" fill="#FFE261"/>
<path d="M99.6904 26.288C99.3809 25.3221 98.4827 24.6667 97.4684 24.6667H84.4264C83.3846 24.6667 82.469 25.3574 82.1828 26.3591C81.757 27.8496 82.8762 29.3334 84.4264 29.3334H97.4684C99.0496 29.3334 100.173 27.7938 99.6904 26.288Z" fill="#797979"/>
<path d="M76 50.6667H73.3333V53.3334H76V50.6667Z" fill="#888888"/>
<path d="M125.333 50.6667H122.667V53.3334H125.333V50.6667Z" fill="#888888"/>
<path d="M73.3333 53.3335H70.6666V56.0002H73.3333V53.3335Z" fill="#888888"/>
<path d="M122.667 53.3335H120V56.0002H122.667V53.3335Z" fill="#888888"/>
<path d="M70.6667 50.6667H68V53.3334H70.6667V50.6667Z" fill="#888888"/>
<path d="M120 50.6667H117.333V53.3334H120V50.6667Z" fill="#888888"/>
<path d="M68 53.3335H65.3333V56.0002H68V53.3335Z" fill="#888888"/>
<path d="M117.333 53.3335H114.667V56.0002H117.333V53.3335Z" fill="#888888"/>
<path d="M81.3333 50.6667H78.6666V53.3334H81.3333V50.6667Z" fill="#888888"/>
<path d="M130.667 50.6667H128V53.3334H130.667V50.6667Z" fill="#888888"/>
<path d="M65.3333 50.6667H62.6666V53.3334H65.3333V50.6667Z" fill="#888888"/>
<path d="M114.667 50.6667H112V53.3334H114.667V50.6667Z" fill="#888888"/>
<path d="M78.6667 53.3335H76V56.0002H78.6667V53.3335Z" fill="#888888"/>
<path d="M128 53.3335H125.333V56.0002H128V53.3335Z" fill="#888888"/>
<path d="M62.6667 53.3335H60V56.0002H62.6667V53.3335Z" fill="#888888"/>
<path d="M112 53.3335H109.333V56.0002H112V53.3335Z" fill="#888888"/>
<path d="M112 71.3334C112 77.2245 116.776 82.0001 122.667 82.0001C128.558 82.0001 133.333 77.2245 133.333 71.3334C133.333 65.4424 128.558 60.6667 122.667 60.6667C116.776 60.6667 112 65.4424 112 71.3334Z" fill="#555555"/>
<path d="M58.6667 71.3334C58.6667 77.2245 63.4423 82.0001 69.3333 82.0001C75.2244 82.0001 80 77.2245 80 71.3334C80 65.4424 75.2244 60.6667 69.3333 60.6667C63.4423 60.6667 58.6667 65.4424 58.6667 71.3334Z" fill="#555555"/>
<path d="M117.333 71.3335C117.333 74.279 119.721 76.6668 122.667 76.6668C125.612 76.6668 128 74.279 128 71.3335C128 68.3879 125.612 66.0001 122.667 66.0001C119.721 66.0001 117.333 68.3879 117.333 71.3335Z" fill="#797979"/>
<path d="M64 71.3335C64 74.279 66.3878 76.6668 69.3334 76.6668C72.2789 76.6668 74.6667 74.279 74.6667 71.3335C74.6667 68.3879 72.2789 66.0001 69.3334 66.0001C66.3878 66.0001 64 68.3879 64 71.3335Z" fill="#797979"/>
<path d="M154 53.3334C154 52.9652 153.702 52.6667 153.333 52.6667H152.667C152.298 52.6667 152 52.9652 152 53.3334V62.6667C152 63.0349 152.298 63.3334 152.667 63.3334H153.333C153.702 63.3334 154 63.0349 154 62.6667V53.3334Z" fill="#D9D9D9"/>
<path d="M45.3333 54.0002C45.3333 53.632 45.0348 53.3335 44.6666 53.3335H44C43.6318 53.3335 43.3333 53.632 43.3333 54.0002V59.3335C43.3333 59.7017 43.6318 60.0002 44 60.0002H44.6666C45.0348 60.0002 45.3333 59.7017 45.3333 59.3335V54.0002Z" fill="#FF7D7D"/>
<path d="M44.6667 62.6667H42V66.6667H44.6667V62.6667Z" fill="#D9D9D9"/>
<path d="M65.3333 34.6668C65.3333 33.194 66.5272 32.0001 68 32.0001H87.3333C88.8061 32.0001 90 33.194 90 34.6668V42.6668C90 44.1395 88.8061 45.3335 87.3333 45.3335H68C66.5272 45.3335 65.3333 44.1395 65.3333 42.6668V34.6668Z" fill="#B9E3F9"/>
<path d="M92.6667 34.6668C92.6667 33.194 93.8606 32.0001 95.3334 32.0001H114.667C116.139 32.0001 117.333 33.194 117.333 34.6668V42.6668C117.333 44.1395 116.139 45.3335 114.667 45.3335H95.3334C93.8606 45.3335 92.6667 44.1395 92.6667 42.6668V34.6668Z" fill="#B9E3F9"/>
<path d="M119.333 44.0002V33.3595C119.333 32.613 119.946 32.012 120.692 32.0264L121.157 32.0353C121.672 32.0452 122.135 32.3504 122.347 32.8195L127.15 43.4513C127.548 44.3338 126.903 45.3336 125.935 45.3336H120.667C119.93 45.3336 119.333 44.7366 119.333 44.0002Z" fill="#B9E3F9"/>
<path d="M153.334 13.3333C153.334 19.5926 148.26 24.6667 142.001 24.6667C135.741 24.6667 130.667 19.5926 130.667 13.3333C130.667 7.07411 135.741 2 142.001 2C148.26 2 153.334 7.07411 153.334 13.3333Z" fill="#4DC4EC"/>
<path d="M141.978 6C142.508 6.00012 142.955 6.35454 143.097 6.83919C145.084 7.21807 146.688 8.77835 147.072 10.8288L147.915 15.3203C148.184 16.756 147.082 18.0832 145.621 18.0833H144.085C143.859 19.0388 143.001 19.7499 141.977 19.75C140.952 19.75 140.094 19.0388 139.869 18.0833H138.335C136.874 18.0833 135.772 16.7562 136.041 15.3203L136.884 10.8288C137.268 8.77862 138.871 7.2183 140.858 6.83919C141 6.35435 141.447 6 141.978 6ZM141.798 8.75C140.354 8.75002 139.115 9.77839 138.849 11.1973L138.007 15.6888C137.968 15.8938 138.126 16.0833 138.335 16.0833H145.621C145.83 16.0832 145.988 15.8937 145.949 15.6888L145.107 11.1973C144.841 9.77845 143.602 8.75015 142.158 8.75H141.798Z" fill="white"/>
</g>
<defs>
<filter id="filter0_g_1099_41352" x="40.6667" y="0.666667" width="114.667" height="82.6668" filterUnits="userSpaceOnUse" color-interpolation-filters="sRGB">
<feFlood flood-opacity="0" result="BackgroundImageFix"/>
<feBlend mode="normal" in="SourceGraphic" in2="BackgroundImageFix" result="shape"/>
<feTurbulence type="fractalNoise" baseFrequency="3 3" numOctaves="3" seed="4545" />
<feDisplacementMap in="shape" scale="2.6666667461395264" xChannelSelector="R" yChannelSelector="G" result="displacedImage" width="100%" height="100%" />
<feMerge result="effect1_texture_1099_41352">
<feMergeNode in="displacedImage"/>
</feMerge>
</filter>
</defs>
</svg>
