<svg width="196" height="84" viewBox="0 0 196 84" fill="none" xmlns="http://www.w3.org/2000/svg">
<g filter="url(#filter0_g_1099_41419)">
<path d="M66.6817 40.6759C66.6817 42.884 62.9884 44.6741 60.509 44.6741C58.0297 44.6741 56.0198 42.884 56.0198 40.6759C56.0198 38.4677 59.152 36.6776 61.6313 36.6776C64.1107 36.6776 66.6817 38.4677 66.6817 40.6759Z" fill="#FECE12"/>
<path d="M128.654 40.0095C128.654 37.8013 132.348 36.0112 134.827 36.0112C137.307 36.0112 139.316 37.8013 139.316 40.0095C139.316 42.2176 136.184 44.0077 133.705 44.0077C131.225 44.0077 128.654 42.2176 128.654 40.0095Z" fill="#FECE12"/>
<path d="M90.9803 30.6744C90.9803 31.1276 90.6129 31.495 90.1597 31.495C89.5903 31.495 89.194 30.9292 89.3885 30.3941C89.7023 29.5311 90.9803 29.7562 90.9803 30.6744ZM104.929 30.1622C104.929 30.8983 104.332 31.495 103.596 31.495H92.3137C91.5776 31.495 90.9809 30.8983 90.9809 30.1622V27.3484C90.9809 26.6123 91.5776 26.0156 92.3137 26.0156H103.596C104.332 26.0156 104.929 26.6123 104.929 27.3484V30.1622ZM106.521 30.3937C106.716 30.929 106.32 31.495 105.75 31.495C105.297 31.495 104.929 31.1275 104.929 30.6742C104.929 29.7558 106.207 29.5306 106.521 30.3937Z" fill="#797979"/>
<path d="M88.646 31.7539C88.4718 31.3533 88.3623 30.9189 88.3284 30.4629C88.3204 30.5323 88.3147 30.6028 88.3147 30.6743C88.3147 31.1052 88.4415 31.4669 88.646 31.7539ZM107.581 30.4629C107.547 30.9182 107.438 31.3519 107.264 31.752C107.468 31.4653 107.595 31.1043 107.595 30.6743C107.595 30.6028 107.589 30.5323 107.581 30.4629ZM103.596 23.3501V26.0156H92.3136V23.3501H103.596ZM89.3885 30.3939C89.1939 30.929 89.5902 31.4949 90.1596 31.4949C90.5845 31.4949 90.9336 31.172 90.9757 30.7583L90.9802 30.6743C90.9802 29.7562 89.7023 29.5311 89.3885 30.3939ZM90.988 30.2982C91.0562 30.9704 91.6235 31.4949 92.3136 31.4949H103.596C104.286 31.4949 104.853 30.9704 104.921 30.2982L104.928 30.1622V27.3483C104.928 26.6582 104.404 26.0909 103.732 26.0227L103.596 26.0156V23.3501C105.804 23.3501 107.594 25.1402 107.594 27.3483V27.6802C108.166 28.0298 108.652 28.5689 108.961 29.3143L109.026 29.4828L109.097 29.6963C109.747 31.9044 108.093 34.1604 105.75 34.1604C105.387 34.1604 105.037 34.1045 104.709 34.0017C104.355 34.1039 103.982 34.1604 103.596 34.1604H92.3136C91.9269 34.1604 91.5532 34.1047 91.1995 34.0023C90.8711 34.1048 90.5218 34.1604 90.1596 34.1604C87.7406 34.1604 86.0567 31.7569 86.8831 29.4835L86.9488 29.3149C87.2575 28.5693 87.7432 28.0298 88.3154 27.6802V27.3483C88.3154 25.1402 90.1054 23.3501 92.3136 23.3501V26.0156L92.1776 26.0227C91.5054 26.0909 90.9809 26.6582 90.9809 27.3483V30.1622L90.988 30.2982ZM106.522 30.3939C106.208 29.5308 104.929 29.7559 104.929 30.6743C104.929 31.1275 105.297 31.4949 105.75 31.4949C106.319 31.4949 106.716 30.9291 106.522 30.3939Z" fill="#FFE261"/>
<path d="M64.8648 66.197C66.337 66.197 67.5303 67.3904 67.5303 68.8625L67.5303 79.3606C67.5303 80.8327 66.337 82.0261 64.8648 82.0261L61.6725 82.0261C60.2004 82.0261 59.007 80.8327 59.007 79.3606L59.007 68.8625C59.007 67.3904 60.2004 66.197 61.6725 66.197L64.8648 66.197Z" fill="#555555"/>
<path d="M134.878 66.197C136.35 66.197 137.544 67.3904 137.544 68.8625L137.544 79.3606C137.544 80.8327 136.35 82.0261 134.878 82.0261L131.686 82.0261C130.214 82.0261 129.02 80.8327 129.02 79.3606L129.02 68.8625C129.02 67.3904 130.214 66.197 131.686 66.197L134.878 66.197Z" fill="#555555"/>
<path d="M121.363 29.0612C122.331 29.0612 123.223 29.586 123.693 30.4321L128.781 39.5913C128.939 39.8747 129.147 40.1269 129.395 40.3357L139.638 48.9616C140.24 49.4681 140.587 50.2143 140.587 51.0005V68.782C140.587 71.7262 138.2 74.113 135.256 74.113H60.6844C57.7402 74.113 55.3534 71.7262 55.3534 68.782V51.0005C55.3534 50.2143 55.7005 49.4681 56.302 48.9616L66.5455 40.3357C66.7935 40.1269 67.0013 39.8747 67.1587 39.5913L72.2473 30.4321C72.7175 29.586 73.6094 29.0612 74.5774 29.0612H121.363Z" fill="#FFE261"/>
<path d="M55.3534 66.8062H140.587V68.7809C140.587 71.7251 138.2 74.1119 135.256 74.1119H60.6844C57.7402 74.1119 55.3534 71.7251 55.3534 68.7809V66.8062Z" fill="#FECE12"/>
<path d="M120.062 31.4962C120.535 31.4962 120.972 31.7462 121.211 32.1532L125.731 39.8374C126.254 40.7258 125.613 41.8458 124.582 41.8458H72.0148C70.984 41.8458 70.3434 40.7258 70.866 39.8373L75.3865 32.1532C75.6259 31.7461 76.0629 31.4962 76.5352 31.4962H120.062Z" fill="#B9E3F9"/>
<path d="M116.471 52.8046C117.49 52.8046 118.132 53.902 117.633 54.7904L114.726 59.9616C114.718 59.9765 114.713 59.9933 114.713 60.0104C114.713 60.0654 114.669 60.1099 114.614 60.1099H81.8397C81.8385 60.1099 81.8376 60.109 81.8376 60.1079C81.8376 60.1075 81.8375 60.1072 81.8373 60.1069L78.8493 54.7903C78.35 53.9019 78.992 52.8046 80.0111 52.8046H116.471Z" fill="#C1C1C1"/>
<path d="M69.3553 68.4606C69.3553 69.8056 68.265 70.8959 66.92 70.8959C65.5751 70.8959 64.4848 69.8056 64.4848 68.4606C64.4848 67.1157 65.5751 66.0254 66.92 66.0254C68.265 66.0254 69.3553 67.1157 69.3553 68.4606Z" fill="white"/>
<path d="M131.455 68.4606C131.455 69.8056 130.365 70.8959 129.02 70.8959C127.675 70.8959 126.585 69.8056 126.585 68.4606C126.585 67.1157 127.675 66.0254 129.02 66.0254C130.365 66.0254 131.455 67.1157 131.455 68.4606Z" fill="white"/>
<path d="M133.28 55.2397C133.28 58.2658 130.827 60.7189 127.801 60.7189C124.774 60.7189 122.321 58.2658 122.321 55.2397C122.321 52.2135 124.774 49.7604 127.801 49.7604C130.827 49.7604 133.28 52.2135 133.28 55.2397Z" fill="white"/>
<path d="M74.2277 55.2397C74.2277 58.2658 71.7746 60.7189 68.7484 60.7189C65.7223 60.7189 63.2692 58.2658 63.2692 55.2397C63.2692 52.2135 65.7223 49.7604 68.7484 49.7604C71.7746 49.7604 74.2277 52.2135 74.2277 55.2397Z" fill="white"/>
<path d="M78.6765 68.8625C78.6765 67.3904 79.8698 66.197 81.3419 66.197H114.975C116.447 66.197 117.64 67.3904 117.64 68.8625V72.0549C117.64 73.527 116.447 74.7204 114.975 74.7204H81.3419C79.8698 74.7204 78.6765 73.527 78.6765 72.0549V68.8625Z" fill="#797979"/>
<path d="M153.31 13.3547C153.31 19.6112 148.238 24.6831 141.981 24.6831C135.725 24.6831 130.653 19.6112 130.653 13.3547C130.653 7.09824 135.725 2.02637 141.981 2.02637C148.238 2.02637 153.31 7.09824 153.31 13.3547Z" fill="#FF7D7D"/>
<path d="M147.353 7.98332C146.962 7.59296 146.33 7.59296 145.939 7.98332L136.61 17.3125L136.541 17.3887C136.221 17.7813 136.244 18.3601 136.61 18.726C136.976 19.0918 137.555 19.1149 137.947 18.795L138.023 18.726L147.353 9.39676C147.743 9.0064 147.743 8.37367 147.353 7.98332Z" fill="white"/>
<path d="M136.61 7.98332C137 7.59296 137.633 7.59296 138.023 7.98332L147.353 17.3125L147.422 17.3887C147.741 17.7813 147.718 18.3601 147.353 18.726C146.987 19.0918 146.408 19.1149 146.015 18.795L145.939 18.726L136.61 9.39676C136.22 9.0064 136.22 8.37367 136.61 7.98332Z" fill="white"/>
</g>
<defs>
<filter id="filter0_g_1099_41419" x="54.0206" y="0.693621" width="100.622" height="82.6652" filterUnits="userSpaceOnUse" color-interpolation-filters="sRGB">
<feFlood flood-opacity="0" result="BackgroundImageFix"/>
<feBlend mode="normal" in="SourceGraphic" in2="BackgroundImageFix" result="shape"/>
<feTurbulence type="fractalNoise" baseFrequency="3.0013213157653809 3.0013213157653809" numOctaves="3" seed="1932" />
<feDisplacementMap in="shape" scale="2.6654927730560303" xChannelSelector="R" yChannelSelector="G" result="displacedImage" width="100%" height="100%" />
<feMerge result="effect1_texture_1099_41419">
<feMergeNode in="displacedImage"/>
</feMerge>
</filter>
</defs>
</svg>
