<svg width="196" height="84" viewBox="0 0 196 84" fill="none" xmlns="http://www.w3.org/2000/svg">
<g filter="url(#filter0_g_1099_41395)">
<path d="M153.334 13.3333C153.334 19.5926 148.26 24.6667 142.001 24.6667C135.741 24.6667 130.667 19.5926 130.667 13.3333C130.667 7.07411 135.741 2 142.001 2C148.26 2 153.334 7.07411 153.334 13.3333Z" fill="#00C89A"/>
<path d="M146.594 10.6608C146.965 10.2523 147.598 10.2218 148.006 10.5931C148.415 10.9646 148.445 11.5972 148.074 12.0059L142.348 18.3047C141.451 19.2904 139.913 19.3268 138.971 18.3848L135.96 15.3737C135.57 14.9832 135.57 14.3502 135.96 13.9597C136.326 13.5936 136.905 13.5706 137.298 13.8907L137.374 13.9597L140.385 16.9707C140.52 17.1053 140.74 17.0998 140.868 16.959L146.594 10.6608Z" fill="white"/>
<path d="M64.4903 29.3334C63.7522 29.3334 63.0472 29.6393 62.5429 30.1783L44.7193 49.2312C44.2571 49.7252 44 50.3764 44 51.0529V66C44 70.4183 47.5817 74 52 74H144C148.418 74 152 70.4183 152 66V52.1121C152 50.8746 151.149 49.7997 149.944 49.5163L130.577 44.9593C129.791 44.7743 129.131 44.2428 128.782 43.5141L122.725 30.8495C122.282 29.9231 121.346 29.3334 120.319 29.3334H64.4903Z" fill="#FFE261"/>
<path d="M106.458 48.748V56.6668H104.818V48.748H106.458Z" fill="#797979"/>
<path d="M98.6589 48.748L100.278 51.4715H100.332L101.962 48.748H103.821L101.404 52.7074L103.876 56.6668H101.973L100.332 53.9434H100.278L98.637 56.6668H96.7448L99.2276 52.7074L96.7886 48.748H98.6589Z" fill="#797979"/>
<path d="M90.4229 56.6668H88.6511L91.3964 48.748H93.5073L96.2417 56.6668H94.4808L93.8901 54.8402H91.0245L90.4229 56.6668ZM91.4401 53.5605H93.4745L92.4792 50.5309H92.4245L91.4401 53.5605Z" fill="#797979"/>
<path d="M82.5703 50.1043V48.748H89.0563V50.1043H86.6281V56.6668H84.9984V50.1043H82.5703Z" fill="#797979"/>
<path d="M152.667 66.6666H44.6667C44.6667 70.7167 47.9499 74 52 74H145.333C149.383 74 152.667 70.7167 152.667 66.6666Z" fill="#FECE12"/>
<path d="M101.194 24.6462C100.883 23.4789 99.8255 22.6666 98.6174 22.6666H83.3816C82.1734 22.6666 81.1162 23.4788 80.8049 24.6462L79.5605 29.3129C79.109 31.0058 80.385 32.6666 82.1371 32.6666H99.8618C101.614 32.6666 102.89 31.0058 102.438 29.3129L101.194 24.6462Z" fill="#FFE261"/>
<path d="M99.6904 26.2879C99.3809 25.3219 98.4827 24.6666 97.4684 24.6666H84.4264C83.3846 24.6666 82.469 25.3572 82.1828 26.3589C81.757 27.8495 82.8762 29.3333 84.4264 29.3333H97.4684C99.0496 29.3333 100.173 27.7937 99.6904 26.2879Z" fill="#797979"/>
<path d="M76 50.6666H73.3333V53.3333H76V50.6666Z" fill="#888888"/>
<path d="M125.333 50.6666H122.667V53.3333H125.333V50.6666Z" fill="#888888"/>
<path d="M73.3333 53.3334H70.6666V56H73.3333V53.3334Z" fill="#888888"/>
<path d="M122.667 53.3334H120V56H122.667V53.3334Z" fill="#888888"/>
<path d="M70.6667 50.6666H68V53.3333H70.6667V50.6666Z" fill="#888888"/>
<path d="M120 50.6666H117.333V53.3333H120V50.6666Z" fill="#888888"/>
<path d="M68 53.3334H65.3333V56H68V53.3334Z" fill="#888888"/>
<path d="M117.333 53.3334H114.667V56H117.333V53.3334Z" fill="#888888"/>
<path d="M81.3333 50.6666H78.6666V53.3333H81.3333V50.6666Z" fill="#888888"/>
<path d="M130.667 50.6666H128V53.3333H130.667V50.6666Z" fill="#888888"/>
<path d="M65.3333 50.6666H62.6666V53.3333H65.3333V50.6666Z" fill="#888888"/>
<path d="M114.667 50.6666H112V53.3333H114.667V50.6666Z" fill="#888888"/>
<path d="M78.6667 53.3334H76V56H78.6667V53.3334Z" fill="#888888"/>
<path d="M128 53.3334H125.333V56H128V53.3334Z" fill="#888888"/>
<path d="M62.6667 53.3334H60V56H62.6667V53.3334Z" fill="#888888"/>
<path d="M112 53.3334H109.333V56H112V53.3334Z" fill="#888888"/>
<path d="M112 71.3333C112 77.2243 116.776 82 122.667 82C128.558 82 133.333 77.2243 133.333 71.3333C133.333 65.4423 128.558 60.6666 122.667 60.6666C116.776 60.6666 112 65.4423 112 71.3333Z" fill="#555555"/>
<path d="M58.6667 71.3333C58.6667 77.2243 63.4423 82 69.3333 82C75.2244 82 80 77.2243 80 71.3333C80 65.4423 75.2244 60.6666 69.3333 60.6666C63.4423 60.6666 58.6667 65.4423 58.6667 71.3333Z" fill="#555555"/>
<path d="M117.333 71.3333C117.333 74.2789 119.721 76.6667 122.667 76.6667C125.612 76.6667 128 74.2789 128 71.3333C128 68.3878 125.612 66 122.667 66C119.721 66 117.333 68.3878 117.333 71.3333Z" fill="#797979"/>
<path d="M64 71.3333C64 74.2789 66.3878 76.6667 69.3334 76.6667C72.2789 76.6667 74.6667 74.2789 74.6667 71.3333C74.6667 68.3878 72.2789 66 69.3334 66C66.3878 66 64 68.3878 64 71.3333Z" fill="#797979"/>
<path d="M154 53.3333C154 52.9651 153.702 52.6666 153.333 52.6666H152.667C152.298 52.6666 152 52.9651 152 53.3333V62.6666C152 63.0348 152.298 63.3333 152.667 63.3333H153.333C153.702 63.3333 154 63.0348 154 62.6666V53.3333Z" fill="#D9D9D9"/>
<path d="M45.3333 54C45.3333 53.6319 45.0348 53.3334 44.6666 53.3334H44C43.6318 53.3334 43.3333 53.6319 43.3333 54V59.3334C43.3333 59.7016 43.6318 60 44 60H44.6666C45.0348 60 45.3333 59.7016 45.3333 59.3334V54Z" fill="#FF7D7D"/>
<path d="M44.6667 62.6666H42V66.6666H44.6667V62.6666Z" fill="#D9D9D9"/>
<path d="M65.3333 34.6667C65.3333 33.1939 66.5272 32 68 32H87.3333C88.8061 32 90 33.1939 90 34.6667V42.6667C90 44.1394 88.8061 45.3333 87.3333 45.3333H68C66.5272 45.3333 65.3333 44.1394 65.3333 42.6667V34.6667Z" fill="#B9E3F9"/>
<path d="M92.6667 34.6667C92.6667 33.1939 93.8606 32 95.3334 32H114.667C116.139 32 117.333 33.1939 117.333 34.6667V42.6667C117.333 44.1394 116.139 45.3333 114.667 45.3333H95.3334C93.8606 45.3333 92.6667 44.1394 92.6667 42.6667V34.6667Z" fill="#B9E3F9"/>
<path d="M119.333 44.0001V33.3593C119.333 32.6129 119.946 32.0119 120.692 32.0263L121.157 32.0352C121.672 32.0451 122.135 32.3503 122.347 32.8194L127.15 43.4512C127.548 44.3337 126.903 45.3335 125.935 45.3335H120.667C119.93 45.3335 119.333 44.7365 119.333 44.0001Z" fill="#B9E3F9"/>
</g>
<defs>
<filter id="filter0_g_1099_41395" x="40.6667" y="0.666667" width="114.667" height="82.6667" filterUnits="userSpaceOnUse" color-interpolation-filters="sRGB">
<feFlood flood-opacity="0" result="BackgroundImageFix"/>
<feBlend mode="normal" in="SourceGraphic" in2="BackgroundImageFix" result="shape"/>
<feTurbulence type="fractalNoise" baseFrequency="3 3" numOctaves="3" seed="7502" />
<feDisplacementMap in="shape" scale="2.6666667461395264" xChannelSelector="R" yChannelSelector="G" result="displacedImage" width="100%" height="100%" />
<feMerge result="effect1_texture_1099_41395">
<feMergeNode in="displacedImage"/>
</feMerge>
</filter>
</defs>
</svg>
