<svg width="24" height="24" viewBox="0 0 24 24" fill="none" xmlns="http://www.w3.org/2000/svg">
<path d="M20.8533 8.94485C20.8533 8.69761 20.6199 8.50336 20.3417 8.50336H19.3815L19.0494 6.00453C18.852 4.93612 18.1789 4.04431 16.9673 3.94719C15.5673 3.84123 13.6916 3.69995 11.9865 3.69995C10.2813 3.69995 8.44156 3.84123 7.01461 3.95602C5.80306 4.05314 5.17484 4.96261 4.95945 6.01336L4.5915 8.51219H3.65815C3.37994 8.50336 3.14661 8.69761 3.14661 8.94485V9.72187C3.14661 9.9691 3.36199 10.1722 3.64918 10.1722H4.35816L4.29534 10.6313C4.25047 10.9139 4.22355 11.1964 4.22355 11.4878V16.9358C4.22355 16.9358 4.24149 16.9976 4.24149 17.0241L4.21457 19.6995C4.21457 20.0174 4.46586 20.2823 4.77996 20.2823H5.77613C6.09024 20.2823 6.3505 20.0351 6.35947 19.7172L6.37742 17.4479H17.6673V19.726C17.6673 20.0439 17.9276 20.3 18.2417 20.3H19.2379C19.552 20.3 19.8122 20.0351 19.8122 19.7172V14.3045H19.7853V11.6909C19.7853 11.1964 19.7315 11.0198 19.6417 10.5165L19.5968 10.1898H20.3507C20.6289 10.1898 20.8533 9.97793 20.8533 9.7307V8.95367V8.94485ZM7.67872 15.523C6.99666 15.523 6.44024 14.9668 6.44024 14.278C6.44024 13.5893 6.99666 13.033 7.67872 13.033C8.36079 13.033 8.9172 13.5893 8.9172 14.278C8.9172 14.9668 8.36079 15.523 7.67872 15.523ZM16.3481 15.523C15.666 15.523 15.1096 14.9668 15.1096 14.278C15.1096 13.5893 15.666 13.033 16.3481 13.033C17.0301 13.033 17.5866 13.5893 17.5866 14.278C17.5866 14.9668 17.0301 15.523 16.3481 15.523ZM17.5417 10.1634H6.44922C6.37742 10.1634 6.33255 10.1192 6.29665 10.0662C6.2787 10.0309 6.26075 9.99559 6.26075 9.95144L6.46717 8.52102L6.74538 6.43719C6.81717 6.00453 7.10436 5.81027 7.46334 5.74846C8.43258 5.57187 10.0659 5.43059 12.0314 5.43059C14.4365 5.43059 15.5942 5.56304 16.6981 5.76612C17.0032 5.8191 17.2635 6.11048 17.2994 6.46367L17.5417 8.52102L17.7212 9.96027C17.7212 9.96027 17.7032 10.0397 17.6853 10.0662C17.6494 10.1192 17.6045 10.1634 17.5327 10.1634H17.5417Z" fill="black"/>
</svg>
