<svg width="196" height="84" viewBox="0 0 196 84" fill="none" xmlns="http://www.w3.org/2000/svg">
<g filter="url(#filter0_g_1099_41351)">
<path d="M66.371 40.7512C66.371 42.9578 62.6803 44.7465 60.2028 44.7465C57.7253 44.7465 55.7169 42.9578 55.7169 40.7512C55.7169 38.5447 58.8468 36.756 61.3243 36.756C63.8018 36.756 66.371 38.5447 66.371 40.7512Z" fill="#FECE12"/>
<path d="M128.298 40.0854C128.298 37.8788 131.989 36.0901 134.466 36.0901C136.944 36.0901 138.952 37.8788 138.952 40.0854C138.952 42.2919 135.822 44.0806 133.345 44.0806C130.867 44.0806 128.298 42.2919 128.298 40.0854Z" fill="#FECE12"/>
<path d="M90.6515 30.7572C90.6515 31.2101 90.2844 31.5772 89.8316 31.5772C89.2626 31.5772 88.8666 31.0118 89.061 30.4771C89.3745 29.6148 90.6515 29.8397 90.6515 30.7572ZM104.589 30.2454C104.589 30.9809 103.993 31.5772 103.258 31.5772H91.9839C91.2484 31.5772 90.6522 30.9809 90.6522 30.2454V27.4336C90.6522 26.6981 91.2484 26.1019 91.9839 26.1019H103.258C103.993 26.1019 104.589 26.6981 104.589 27.4336V30.2454ZM106.181 30.4767C106.376 31.0116 105.979 31.5772 105.41 31.5772C104.957 31.5772 104.59 31.21 104.59 30.757C104.59 29.8393 105.867 29.6142 106.181 30.4767Z" fill="#797979"/>
<path d="M88.319 31.836C88.145 31.4356 88.0356 31.0015 88.0017 30.5458C87.9938 30.6153 87.988 30.6856 87.988 30.7572C87.988 31.1877 88.1147 31.5492 88.319 31.836ZM107.24 30.5458C107.206 31.0008 107.097 31.4342 106.923 31.834C107.127 31.5475 107.254 31.1869 107.254 30.7572C107.254 30.6857 107.248 30.6152 107.24 30.5458ZM103.258 23.4384L103.258 26.1019H91.9839L91.984 23.4384H103.258ZM89.061 30.4771C88.8666 31.0118 89.2626 31.5772 89.8316 31.5772C90.2561 31.5772 90.605 31.2545 90.647 30.8411L90.6515 30.7572C90.6515 29.8397 89.3745 29.6148 89.061 30.4771ZM90.6594 30.3813C90.7275 31.053 91.2943 31.5772 91.9839 31.5772H103.258C103.947 31.5772 104.514 31.053 104.582 30.3813L104.589 30.2454V27.4336C104.589 26.744 104.065 26.1771 103.394 26.109L103.258 26.1019L103.258 23.4384C105.464 23.4384 107.253 25.2271 107.253 27.4336V27.7653C107.825 28.1146 108.31 28.6532 108.619 29.3981L108.684 29.5665L108.755 29.7798C109.405 31.9863 107.752 34.2407 105.41 34.2407C105.048 34.2407 104.698 34.1848 104.37 34.082C104.017 34.1842 103.644 34.2407 103.258 34.2407H91.984C91.5975 34.2407 91.2241 34.185 90.8707 34.0827C90.5425 34.1851 90.1935 34.2407 89.8316 34.2407C87.4144 34.2407 85.7317 31.8389 86.5574 29.5672L86.6231 29.3988C86.9316 28.6537 87.4169 28.1146 87.9887 27.7653V27.4336C87.9887 25.2271 89.7774 23.4384 91.984 23.4384L91.9839 26.1019L91.8481 26.109C91.1764 26.1771 90.6522 26.744 90.6522 27.4336V30.2454L90.6594 30.3813ZM106.181 30.4767C105.867 29.6142 104.59 29.8393 104.59 30.757C104.59 31.21 104.957 31.5772 105.41 31.5772C105.979 31.5772 106.376 31.0116 106.181 30.4767Z" fill="#FFE261"/>
<path d="M64.5554 66.2537C66.0264 66.2537 67.2189 67.4462 67.2189 68.9172V79.4075C67.2189 80.8785 66.0264 82.071 64.5554 82.071H61.3654C59.8944 82.071 58.7019 80.8785 58.7019 79.4075L58.7019 68.9172C58.7019 67.4462 59.8944 66.2537 61.3654 66.2537H64.5554Z" fill="#555555"/>
<path d="M134.517 66.2537C135.988 66.2537 137.181 67.4462 137.181 68.9172V79.4075C137.181 80.8785 135.988 82.071 134.517 82.071H131.327C129.856 82.071 128.664 80.8785 128.664 79.4075V68.9172C128.664 67.4462 129.856 66.2537 131.327 66.2537H134.517Z" fill="#555555"/>
<path d="M121.012 29.1452C121.979 29.1452 122.87 29.6696 123.34 30.5151L128.425 39.6675C128.582 39.9507 128.79 40.2027 129.037 40.4114L139.273 49.0309C139.874 49.537 140.221 50.2826 140.221 51.0683V68.8367C140.221 71.7787 137.836 74.1637 134.894 74.1637H60.3781C57.436 74.1637 55.0511 71.7787 55.051 68.8367V51.0683C55.051 50.2826 55.3979 49.537 55.9989 49.0309L66.2349 40.4114C66.4826 40.2027 66.6903 39.9507 66.8476 39.6675L71.9325 30.5151C72.4023 29.6696 73.2935 29.1452 74.2608 29.1452H121.012Z" fill="#FFE261"/>
<path d="M55.051 66.8623H140.221V68.8356C140.221 71.7776 137.836 74.1626 134.894 74.1626H60.3781C57.436 74.1626 55.051 71.7776 55.051 68.8356V66.8623Z" fill="#FECE12"/>
<path d="M119.712 31.5785C120.184 31.5785 120.621 31.8282 120.86 32.235L125.377 39.9135C125.899 40.8013 125.259 41.9204 124.229 41.9204H71.7001C70.67 41.9204 70.0299 40.8012 70.5522 39.9134L75.0693 32.235C75.3085 31.8282 75.7452 31.5785 76.2171 31.5785H119.712Z" fill="#B9E3F9"/>
<path d="M116.124 52.871C117.142 52.871 117.784 53.9676 117.285 54.8554L114.38 60.0228C114.371 60.0377 114.367 60.0545 114.367 60.0716C114.367 60.1265 114.322 60.171 114.268 60.171H81.5179L81.5158 60.169L81.5156 60.1679L78.5293 54.8554C78.0303 53.9676 78.6718 52.871 79.6902 52.871H116.124Z" fill="#C1C1C1"/>
<path d="M69.0425 68.5154C69.0425 69.8594 67.9531 70.9489 66.6091 70.9489C65.2652 70.9489 64.1757 69.8594 64.1757 68.5154C64.1757 67.1715 65.2652 66.082 66.6091 66.082C67.9531 66.082 69.0425 67.1715 69.0425 68.5154Z" fill="white"/>
<path d="M131.097 68.5154C131.097 69.8594 130.007 70.9489 128.663 70.9489C127.319 70.9489 126.23 69.8594 126.23 68.5154C126.23 67.1715 127.319 66.082 128.663 66.082C130.007 66.082 131.097 67.1715 131.097 68.5154Z" fill="white"/>
<path d="M132.92 55.3043C132.92 58.3282 130.469 60.7795 127.445 60.7795C124.421 60.7795 121.969 58.3282 121.969 55.3043C121.969 52.2804 124.421 49.8291 127.445 49.8291C130.469 49.8291 132.92 52.2804 132.92 55.3043Z" fill="white"/>
<path d="M73.9114 55.3043C73.9114 58.3282 71.4601 60.7795 68.4362 60.7795C65.4123 60.7795 62.961 58.3282 62.961 55.3043C62.961 52.2804 65.4123 49.8291 68.4362 49.8291C71.4601 49.8291 73.9114 52.2804 73.9114 55.3043Z" fill="white"/>
<path d="M78.3568 68.9172C78.3568 67.4462 79.5493 66.2537 81.0204 66.2537H114.628C116.099 66.2537 117.292 67.4462 117.292 68.9172V72.1072C117.292 73.5782 116.099 74.7707 114.628 74.7707H81.0204C79.5493 74.7707 78.3568 73.5782 78.3568 72.1072V68.9172Z" fill="#797979"/>
<path d="M152.935 13.4501C152.935 19.7019 147.867 24.7701 141.615 24.7701C135.364 24.7701 130.296 19.7019 130.296 13.4501C130.296 7.19825 135.364 2.13013 141.615 2.13013C147.867 2.13013 152.935 7.19825 152.935 13.4501Z" fill="#888888"/>
<path d="M142.284 8.69531L142.115 15.2891H140.45L140.281 8.69531H142.284ZM141.296 18.2283C140.685 18.2283 140.19 17.7341 140.203 17.1359C140.19 16.5376 140.685 16.0564 141.296 16.0564C141.868 16.0564 142.375 16.5376 142.375 17.1359C142.375 17.7341 141.868 18.2283 141.296 18.2283Z" fill="white"/>
</g>
<defs>
<filter id="filter0_g_1099_41351" x="53.7193" y="0.798366" width="100.548" height="82.6044" filterUnits="userSpaceOnUse" color-interpolation-filters="sRGB">
<feFlood flood-opacity="0" result="BackgroundImageFix"/>
<feBlend mode="normal" in="SourceGraphic" in2="BackgroundImageFix" result="shape"/>
<feTurbulence type="fractalNoise" baseFrequency="3.0035429000854492 3.0035429000854492" numOctaves="3" seed="2028" />
<feDisplacementMap in="shape" scale="2.6635210514068604" xChannelSelector="R" yChannelSelector="G" result="displacedImage" width="100%" height="100%" />
<feMerge result="effect1_texture_1099_41351">
<feMergeNode in="displacedImage"/>
</feMerge>
</filter>
</defs>
</svg>
