<svg width="24" height="24" viewBox="0 0 24 24" fill="none" xmlns="http://www.w3.org/2000/svg">
<path d="M13.7857 7.48896V8.75277H15.9735V7.48896H17.4652V12.1423H12.3022V7.48896H13.7857ZM13.3713 13.9903V12.8343H20.4487V15.7348H14.863V16.4268H20.7553V17.6036H13.3879V14.6616H18.9569V13.9903H13.3713ZM13.7857 10.9696H15.9735V9.8757H13.7857V10.9696ZM18.9487 12.4406V7.00415H20.4487V9.08426H21.8824V10.2942H20.4487V12.4406H18.9487Z" fill="white"/>
<path d="M11.8014 11.5539V12.6436H7.69088V13.3149H10.637V15.9171H4.69502V16.5014H10.9146V17.6036H3.22817V14.9144H9.16188V14.384H3.21989V13.3149H6.2116V12.6436H2.11768V11.5539H11.8014ZM2.49889 10.1657C4.62458 10.0746 5.70607 9.56492 6.01685 8.94751H3.02928V7.84116H6.20331V7H7.68674V7.84116H10.8815V8.94751H7.86906C8.17154 9.56492 9.25718 10.0746 11.4119 10.1657L10.9726 11.268C8.99613 11.1644 7.62044 10.663 6.94502 9.86326C6.27375 10.663 4.90221 11.1644 2.90911 11.268L2.49889 10.1657Z" fill="white"/>
</svg>
