<svg width="24" height="24" viewBox="0 0 24 24" fill="none" xmlns="http://www.w3.org/2000/svg">
<path fill-rule="evenodd" clip-rule="evenodd" d="M12 3.42859C11.322 3.42859 10.6714 3.69773 10.1914 4.17773L9.42601 4.94316C9.26692 5.10006 9.05287 5.18863 8.82943 5.19002H7.74858C7.41255 5.1899 7.07979 5.25601 6.76932 5.38455C6.45885 5.51309 6.17675 5.70155 5.93914 5.93915C5.70154 6.17676 5.51308 6.45886 5.38454 6.76933C5.256 7.0798 5.18989 7.41256 5.19001 7.74859V8.8303C5.18862 9.05373 5.10004 9.26779 4.94315 9.42687L4.17772 10.1923C3.69806 10.672 3.42859 11.3225 3.42859 12.0009C3.42859 12.6792 3.69806 13.3298 4.17772 13.8094L4.94315 14.5749C5.10004 14.734 5.18862 14.948 5.19001 15.1714V16.2532C5.19001 16.9315 5.45948 17.5821 5.93914 18.0617C6.41881 18.5414 7.06937 18.8109 7.74772 18.8109H8.82943C9.05315 18.8109 9.26829 18.9 9.42601 19.0577L10.1914 19.8232C10.6711 20.3028 11.3217 20.5723 12 20.5723C12.6784 20.5723 13.3289 20.3028 13.8086 19.8232L14.574 19.0577C14.7331 18.9008 14.9471 18.8123 15.1706 18.8109H16.2523C16.9306 18.8109 17.5812 18.5414 18.0609 18.0617C18.5405 17.5821 18.81 16.9315 18.81 16.2532V15.1714C18.81 14.9477 18.8991 14.7326 19.0569 14.5749L19.8223 13.8094C20.302 13.3298 20.5714 12.6792 20.5714 12.0009C20.5714 11.3225 20.302 10.672 19.8223 10.1923L19.0569 9.42687C18.9 9.26779 18.8114 9.05373 18.81 8.8303V7.74859C18.81 7.07024 18.5405 6.41968 18.0609 5.94001C17.5812 5.46035 16.9306 5.19087 16.2523 5.19087H15.1706C14.9471 5.18949 14.7331 5.10091 14.574 4.94402L13.8086 4.17859C13.5713 3.94078 13.2893 3.75212 12.979 3.62342C12.6687 3.49472 12.336 3.42852 12 3.42859ZM15.1569 10.0543C15.2406 9.97568 15.3077 9.88103 15.3541 9.77598C15.4005 9.67093 15.4254 9.55762 15.4271 9.44278C15.4289 9.32795 15.4076 9.21392 15.3645 9.10748C15.3213 9.00104 15.2572 8.90435 15.176 8.82317C15.0947 8.74198 14.998 8.67796 14.8915 8.63488C14.7851 8.59181 14.671 8.57058 14.5562 8.57244C14.4414 8.57431 14.3281 8.59923 14.223 8.64574C14.118 8.69224 14.0234 8.75938 13.9449 8.84316L10.2994 12.4886L9.20486 11.394C9.04414 11.2332 8.82611 11.1428 8.59874 11.1427C8.37136 11.1426 8.15327 11.2329 7.99243 11.3936C7.8316 11.5543 7.7412 11.7723 7.74112 11.9997C7.74104 12.2271 7.83128 12.4452 7.99201 12.606L9.69343 14.3066C9.85417 14.4673 10.0722 14.5575 10.2994 14.5575C10.5267 14.5575 10.7447 14.4673 10.9054 14.3066L15.1569 10.0552V10.0543Z" fill="#00B68C"/>
</svg>
