<svg width="24" height="24" viewBox="0 0 24 24" fill="none" xmlns="http://www.w3.org/2000/svg">
<path d="M12 10.5C12.8284 10.5 13.5 11.1716 13.5 12C13.5 12.8284 12.8284 13.5 12 13.5C11.1716 13.5 10.5 12.8284 10.5 12C10.5 11.1716 11.1716 10.5 12 10.5Z" fill="#32363E"/>
<path fill-rule="evenodd" clip-rule="evenodd" d="M12 2C17.5228 2 22 6.47715 22 12C22 17.5228 17.5228 22 12 22C6.47715 22 2 17.5228 2 12C2 6.47715 6.47715 2 12 2ZM13 7C13 7.55228 12.5523 8 12 8C11.4477 8 11 7.55228 11 7V4.06348C7.38148 4.51479 4.51582 7.3815 4.06445 11H7C7.55228 11 8 11.4477 8 12C8 12.5523 7.55228 13 7 13H4.06445C4.51581 16.6185 7.38154 19.4842 11 19.9355V17C11 16.4477 11.4477 16 12 16C12.5523 16 13 16.4477 13 17V19.9355C16.6185 19.4842 19.4842 16.6185 19.9355 13H17C16.4477 13 16 12.5523 16 12C16 11.4477 16.4477 11 17 11H19.9355C19.4842 7.3815 16.6185 4.51479 13 4.06348V7Z" fill="#32363E"/>
</svg>
