<svg width="11" height="16" viewBox="0 0 11 16" fill="none" xmlns="http://www.w3.org/2000/svg">
<path d="M8.28342 1.85304C8.28342 2.26058 8.12153 2.65143 7.83335 2.9396C7.54518 3.22777 7.15433 3.38967 6.74679 3.38967C6.33925 3.38967 5.9484 3.22777 5.66023 2.9396C5.37206 2.65143 5.21016 2.26058 5.21016 1.85304C5.21016 1.4455 5.37206 1.05465 5.66023 0.766475C5.9484 0.478301 6.33925 0.316406 6.74679 0.316406C7.15433 0.316406 7.54518 0.478301 7.83335 0.766475C8.12153 1.05465 8.28342 1.4455 8.28342 1.85304ZM6.14866 9.6887L8.14359 11.6571C8.22008 11.7326 8.27989 11.8233 8.31915 11.9233L9.38288 14.6336C9.45736 14.8233 9.45343 15.0348 9.37194 15.2216C9.29046 15.4084 9.13811 15.5552 8.9484 15.6297C8.75869 15.7042 8.54716 15.7002 8.36036 15.6188C8.17355 15.5373 8.02676 15.3849 7.95228 15.1952L6.94809 12.6363L3.51833 9.25191C3.43545 9.17019 3.37223 9.0707 3.33343 8.96096C3.29463 8.85122 3.28128 8.7341 3.29437 8.61844L3.56904 6.19056C2.90675 6.84901 2.39582 7.77444 2.00436 9.00106C1.9751 9.09884 1.92664 9.18981 1.86182 9.26865C1.79701 9.3475 1.71713 9.41264 1.62686 9.46027C1.53658 9.5079 1.43773 9.53707 1.33606 9.54607C1.23439 9.55507 1.13194 9.54372 1.03471 9.51268C0.937474 9.48165 0.847397 9.43155 0.769739 9.36532C0.69208 9.29909 0.628398 9.21804 0.582409 9.12692C0.536421 9.0358 0.509048 8.93643 0.501891 8.83462C0.494734 8.7328 0.507935 8.63058 0.540724 8.53392C1.2591 6.28276 2.45191 4.59784 4.45337 3.8253L4.46221 3.82185C4.97198 3.63246 5.50212 3.64782 5.97463 3.89176C6.42833 4.12648 6.7514 4.53177 6.96307 4.98584L7.21201 5.52366C7.39948 5.9301 7.55698 6.27277 7.70872 6.57318C7.92116 6.99576 8.09211 7.27619 8.26114 7.47288C8.41788 7.65497 8.57346 7.76715 8.77207 7.84475C8.98566 7.92811 9.28492 7.98573 9.74706 7.99956C9.84859 8.00159 9.9487 8.02373 10.0416 8.06469C10.1345 8.10565 10.2184 8.16462 10.2884 8.2382C10.3584 8.31177 10.4131 8.39849 10.4493 8.49334C10.4856 8.58818 10.5027 8.68928 10.4997 8.79077C10.4966 8.89227 10.4735 8.99216 10.4316 9.08466C10.3897 9.17716 10.3299 9.26044 10.2556 9.32968C10.1814 9.39893 10.0941 9.45276 9.99889 9.48808C9.90369 9.52339 9.80243 9.53948 9.70096 9.53542C9.14586 9.5189 8.65298 9.44783 8.21312 9.27612C7.75866 9.09864 7.40024 8.82857 7.09522 8.47323C6.90314 8.24965 6.73411 7.99418 6.57661 7.71644L6.14866 9.6887Z" fill="#A0A5B1"/>
<path d="M3.29406 10.3887L4.56754 11.6103L3.98132 13.5876C3.93598 13.7405 3.84414 13.8756 3.71855 13.974L1.74629 15.5195C1.66683 15.5817 1.5759 15.6277 1.47867 15.6548C1.38145 15.6818 1.27985 15.6895 1.17966 15.6773C1.07948 15.6652 0.982672 15.6334 0.894774 15.5838C0.806876 15.5342 0.729608 15.4677 0.66738 15.3883C0.605152 15.3088 0.559183 15.2179 0.532098 15.1207C0.505014 15.0235 0.497343 14.9219 0.509525 14.8217C0.521708 14.7215 0.553504 14.6247 0.603098 14.5368C0.652692 14.4489 0.719113 14.3716 0.79857 14.3094L2.57799 12.9157L3.11389 11.1063L3.29406 10.3887Z" fill="#A0A5B1"/>
</svg>
