<svg width="24" height="24" viewBox="0 0 24 24" fill="none" xmlns="http://www.w3.org/2000/svg">
<rect x="6" y="3" width="2" height="10" rx="1" fill="#E9ECF0"/>
<circle cx="20.125" cy="20.125" r="1.875" fill="#E0E2E6"/>
<path d="M5 3C5 2.44772 5.44772 2 6 2C6.55228 2 7 2.44772 7 3V10C7 10.5523 6.55228 11 6 11C5.44772 11 5 10.5523 5 10V3Z" fill="#D2D5DA"/>
<rect x="20" y="10" width="2" height="10" rx="1" transform="rotate(90 20 10)" fill="#A0A5B1"/>
<rect x="21" y="15" width="3" height="12" rx="1" transform="rotate(90 21 15)" fill="#E9ECF0"/>
<rect x="22" y="16" width="3" height="13" rx="1" transform="rotate(90 22 16)" fill="#D2D5DA"/>
<circle cx="9" cy="15" r="7" fill="#A0A5B1"/>
<circle cx="9" cy="15" r="5" fill="#E0E2E6"/>
<circle cx="9" cy="15" r="1" fill="#A0A5B1"/>
<circle cx="20.125" cy="20.125" r="0.625" fill="#A0A5B1"/>
</svg>
