<svg width="30" height="44" viewBox="0 0 30 44" fill="none" xmlns="http://www.w3.org/2000/svg">
<ellipse cx="15" cy="37.2222" rx="10" ry="6" fill="black" fill-opacity="0.2"/>
<ellipse cx="15" cy="37.2221" rx="6" ry="3.6" fill="black" fill-opacity="0.4"/>
<path d="M15 36.7778C15 36.7778 29 24.3333 29 15C29 7.26801 22.732 1 15 1C7.26801 1 1 7.26801 1 15C1 24.3333 15 36.7778 15 36.7778Z" fill="#00C89A" stroke="#00B68C"/>
<path d="M10.23 22.0386V19.627L14.9537 15.6615C15.9234 14.8411 16.5138 14.2382 16.5138 13.3245C16.5138 12.33 15.8115 11.7209 14.8357 11.7209C13.8474 11.7209 13.1761 12.3424 13.1823 13.4301H10C9.9938 10.7761 11.9082 9.13525 14.8357 9.13525C17.8439 9.13525 19.7769 10.6891 19.7769 13.0386C19.7769 14.5116 19.0373 15.7609 16.172 18.1725L14.8854 19.2789V19.3535H19.9137V22.0386H10.23Z" fill="white"/>
</svg>
