<svg width="30" height="44" viewBox="0 0 30 44" fill="none" xmlns="http://www.w3.org/2000/svg">
<ellipse cx="15" cy="37.1328" rx="10" ry="6" fill="black" fill-opacity="0.2"/>
<ellipse cx="15" cy="37.1332" rx="6" ry="3.6" fill="black" fill-opacity="0.4"/>
<path d="M15 36.6889C15 36.6889 29 24.2445 29 14.9111C29 7.17914 22.732 0.911133 15 0.911133C7.26801 0.911133 1 7.17914 1 14.9111C1 24.2445 15 36.6889 15 36.6889Z" fill="#00C89A" stroke="#00B68C"/>
<path d="M8.5 20.6554V12.5842C8.5 12.3465 8.55324 12.1215 8.65971 11.9091C8.76619 11.6968 8.9129 11.5219 9.09986 11.3845L14.1002 7.59778C14.3621 7.39783 14.6611 7.29785 14.9972 7.29785C15.3334 7.29785 15.6342 7.39783 15.8998 7.59778L20.9001 11.3836C21.0877 11.521 21.2344 11.6962 21.3403 11.9091C21.4468 12.1215 21.5 12.3465 21.5 12.5842V20.6554C21.5 20.9042 21.4075 21.1212 21.2224 21.3063C21.0373 21.4914 20.8203 21.5839 20.5714 21.5839H17.4291C17.2162 21.5839 17.0379 21.5121 16.8943 21.3685C16.7507 21.2243 16.6789 21.046 16.6789 20.8336V16.4053C16.6789 16.1929 16.607 16.015 16.4634 15.8714C16.3192 15.7271 16.1409 15.655 15.9286 15.655H14.0714C13.8591 15.655 13.6811 15.7271 13.5375 15.8714C13.3933 16.015 13.3211 16.1929 13.3211 16.4053V20.8346C13.3211 21.0469 13.2493 21.2249 13.1057 21.3685C12.9621 21.5121 12.7841 21.5839 12.5718 21.5839H9.42857C9.17971 21.5839 8.96274 21.4914 8.77764 21.3063C8.59255 21.1212 8.5 20.9042 8.5 20.6554Z" fill="white"/>
</svg>
