<svg width="29" height="44" viewBox="0 0 29 44" fill="none" xmlns="http://www.w3.org/2000/svg">
<ellipse cx="14.5" cy="37.1328" rx="10" ry="6" fill="black" fill-opacity="0.2"/>
<ellipse cx="14.5" cy="37.1332" rx="6" ry="3.6" fill="black" fill-opacity="0.4"/>
<path d="M14.5 36.6889C14.5 36.6889 28.5 24.2445 28.5 14.9111C28.5 7.17914 22.232 0.911133 14.5 0.911133C6.76801 0.911133 0.5 7.17914 0.5 14.9111C0.5 24.2445 14.5 36.6889 14.5 36.6889Z" fill="#00C89A" stroke="#00B68C"/>
<path d="M20.8333 11.4661H18.8333V8.79948C18.8333 8.39948 18.5667 8.13281 18.1667 8.13281H10.8333C10.4333 8.13281 10.1667 8.39948 10.1667 8.79948V11.4661H8.16667C7.76667 11.4661 7.5 11.7328 7.5 12.1328V21.4661C7.5 21.8661 7.76667 22.1328 8.16667 22.1328H20.8333C21.2333 22.1328 21.5 21.8661 21.5 21.4661V12.1328C21.5 11.7328 21.2333 11.4661 20.8333 11.4661ZM11.5 19.4661H10.8333C10.4333 19.4661 10.1667 19.1995 10.1667 18.7995C10.1667 18.3995 10.4333 18.1328 10.8333 18.1328H11.5C11.9 18.1328 12.1667 18.3995 12.1667 18.7995C12.1667 19.1995 11.9 19.4661 11.5 19.4661ZM11.5 16.7995H10.8333C10.4333 16.7995 10.1667 16.5328 10.1667 16.1328C10.1667 15.7328 10.4333 15.4661 10.8333 15.4661H11.5C11.9 15.4661 12.1667 15.7328 12.1667 16.1328C12.1667 16.5328 11.9 16.7995 11.5 16.7995ZM14.8333 19.4661H14.1667C13.7667 19.4661 13.5 19.1995 13.5 18.7995C13.5 18.3995 13.7667 18.1328 14.1667 18.1328H14.8333C15.2333 18.1328 15.5 18.3995 15.5 18.7995C15.5 19.1995 15.2333 19.4661 14.8333 19.4661ZM14.8333 16.7995H14.1667C13.7667 16.7995 13.5 16.5328 13.5 16.1328C13.5 15.7328 13.7667 15.4661 14.1667 15.4661H14.8333C15.2333 15.4661 15.5 15.7328 15.5 16.1328C15.5 16.5328 15.2333 16.7995 14.8333 16.7995ZM15.5 13.1328H15.1667V13.4661C15.1667 13.8661 14.9 14.1328 14.5 14.1328C14.1 14.1328 13.8333 13.8661 13.8333 13.4661V13.1328H13.5C13.1 13.1328 12.8333 12.8661 12.8333 12.4661C12.8333 12.0661 13.1 11.7995 13.5 11.7995H13.8333V11.4661C13.8333 11.0661 14.1 10.7995 14.5 10.7995C14.9 10.7995 15.1667 11.0661 15.1667 11.4661V11.7995H15.5C15.9 11.7995 16.1667 12.0661 16.1667 12.4661C16.1667 12.8661 15.9 13.1328 15.5 13.1328ZM18.1667 19.4661H17.5C17.1 19.4661 16.8333 19.1995 16.8333 18.7995C16.8333 18.3995 17.1 18.1328 17.5 18.1328H18.1667C18.5667 18.1328 18.8333 18.3995 18.8333 18.7995C18.8333 19.1995 18.5667 19.4661 18.1667 19.4661ZM18.1667 16.7995H17.5C17.1 16.7995 16.8333 16.5328 16.8333 16.1328C16.8333 15.7328 17.1 15.4661 17.5 15.4661H18.1667C18.5667 15.4661 18.8333 15.7328 18.8333 16.1328C18.8333 16.5328 18.5667 16.7995 18.1667 16.7995Z" fill="white"/>
</svg>
