<svg width="30" height="44" viewBox="0 0 30 44" fill="none" xmlns="http://www.w3.org/2000/svg">
<ellipse cx="15" cy="37.2222" rx="10" ry="6" fill="black" fill-opacity="0.2"/>
<ellipse cx="15" cy="37.2221" rx="6" ry="3.6" fill="black" fill-opacity="0.4"/>
<path d="M15 36.7778C15 36.7778 29 24.3333 29 15C29 7.26801 22.732 1 15 1C7.26801 1 1 7.26801 1 15C1 24.3333 15 36.7778 15 36.7778Z" fill="#00C89A" stroke="#00B68C"/>
<path d="M15.1278 22.1257C12.1381 22.1257 10.0124 20.4662 10 18.1105H13.375C13.3874 18.875 14.1271 19.422 15.1526 19.422C16.1471 19.422 16.8494 18.8439 16.837 18.0235C16.8494 17.2217 16.0477 16.6499 14.8791 16.6499H13.605V14.3191H14.8791C15.942 14.3191 16.6816 13.7535 16.6692 12.9517C16.6816 12.1809 16.0539 11.634 15.1526 11.634C14.1768 11.634 13.4682 12.1934 13.4558 12.9889H10.2486C10.261 10.6768 12.3059 9.04834 15.1526 9.04834C17.9558 9.04834 19.9137 10.6084 19.9012 12.7341C19.9137 14.1637 18.8198 15.1395 17.3156 15.3135V15.413C19.3419 15.6367 20.386 16.7431 20.3736 18.3094C20.386 20.5407 18.2106 22.1257 15.1278 22.1257Z" fill="white"/>
</svg>
